<svg xmlns="http://www.w3.org/2000/svg" width="30" height="29" fill="none"><path fill="#849DFF" d="M29.89 10.929a2.203 2.203 0 0 0-1.956-1.53l-7.953-.551-2.946-7.452A2.2 2.2 0 0 0 15 0a2.191 2.191 0 0 0-2.035 1.396l-3 7.492-7.9.51a2.206 2.206 0 0 0-1.954 1.53 2.262 2.262 0 0 0 .696 2.43l6.079 5.156-1.808 7.13a2.49 2.49 0 0 0 .938 2.631 2.407 2.407 0 0 0 2.69.08l6.28-3.987h.027l6.762 4.283c.347.226.751.347 1.165.349a2.204 2.204 0 0 0 1.742-.875 2.219 2.219 0 0 0 .374-1.918l-1.915-7.8 6.052-5.048a2.255 2.255 0 0 0 .696-2.43z"/></svg>