<svg xmlns="http://www.w3.org/2000/svg" width="244" height="149" fill="none"><g filter="url(#a)"><path fill="#fff" d="M229.689.073H26.185c-6.817 0-12.343 5.527-12.343 12.344v108.242c0 6.817 5.526 12.344 12.343 12.344H229.69c6.817 0 12.344-5.527 12.344-12.344V12.417c0-6.817-5.527-12.344-12.344-12.344z"/></g><path fill="#FCC55A" d="M52.296 103.312v-12.1a4.624 4.624 0 0 0-9.248 0v12.1a4.624 4.624 0 1 0 9.248 0z"/><path fill="#6637ED" d="M70.834 102.231V71.263a5.705 5.705 0 1 0-11.41 0v30.968a5.705 5.705 0 1 0 11.41 0z"/><path fill="#FCC55A" d="M87.21 103.312v-5.356a4.624 4.624 0 1 0-9.248 0v5.356a4.624 4.624 0 1 0 9.248 0zm32.753 0V88.637a4.624 4.624 0 0 0-9.248 0v14.675a4.624 4.624 0 1 0 9.248 0z"/><path fill="#6637ED" d="M103.586 103.312V67.861a4.624 4.624 0 1 0-9.248 0v35.451a4.624 4.624 0 1 0 9.248 0zm32.753 0V67.861a4.624 4.624 0 0 0-9.248 0v35.451a4.624 4.624 0 1 0 9.248 0zm65.44 0v-3a4.624 4.624 0 0 0-9.248 0v3a4.624 4.624 0 1 0 9.248 0zm-32.731.011v-67.1a4.613 4.613 0 1 0-9.226 0v67.1a4.613 4.613 0 1 0 9.226 0z"/><path fill="#FCC55A" d="M185.403 103.323v-43.32a4.614 4.614 0 0 0-9.227 0v43.32a4.613 4.613 0 0 0 9.227 0zm-32.71 0V58.095a4.613 4.613 0 1 0-9.226 0v45.228a4.613 4.613 0 1 0 9.226 0zm65.462-.011V67.861a4.624 4.624 0 1 0-9.248 0v35.451a4.624 4.624 0 1 0 9.248 0z"/><path fill="#E0E0E0" d="M206.938 114.972H54.518c-5.756 0-10.423.415-10.423.925v.85c0 .511 4.667.925 10.423.925h152.42c5.756 0 10.423-.414 10.423-.925v-.85c0-.51-4.667-.925-10.423-.925zM35.617 22.456a3.594 3.594 0 1 0 0-7.188 3.594 3.594 0 0 0 0 7.188zm13.375-3.594a3.593 3.593 0 1 1-3.654-3.518 3.609 3.609 0 0 1 3.654 3.518zm6.066 3.594a3.594 3.594 0 1 0 0-7.188 3.594 3.594 0 0 0 0 7.188z"/><defs><filter id="a" width="242.191" height="147.929" x=".842" y=".073" color-interpolation-filters="sRGB" filterUnits="userSpaceOnUse"><feFlood flood-opacity="0" result="BackgroundImageFix"/><feColorMatrix in="SourceAlpha" result="hardAlpha" values="0 0 0 0 0 0 0 0 0 0 0 0 0 0 0 0 0 0 127 0"/><feOffset dx="-6" dy="8"/><feGaussianBlur stdDeviation="3.5"/><feComposite in2="hardAlpha" operator="out"/><feColorMatrix values="0 0 0 0 0 0 0 0 0 0 0 0 0 0 0 0 0 0 0.25 0"/><feBlend in2="BackgroundImageFix" result="effect1_dropShadow_322_505"/><feBlend in="SourceGraphic" in2="effect1_dropShadow_322_505" result="shape"/></filter></defs></svg>