<svg xmlns="http://www.w3.org/2000/svg" width="109" height="88" fill="none"><path fill="#50AC61" d="M89.356.03H18.918C13.953.03 9.192 1.87 5.68 5.149 2.17 8.427.195 12.873.192 17.509v39.76c.003 4.638 1.977 9.084 5.488 12.362 3.512 3.278 8.273 5.119 13.238 5.119h25.824l9.443 12.61 9.39-12.63H89.41c4.962-.003 9.721-1.845 13.23-5.123 3.509-3.277 5.482-7.722 5.485-12.357V17.51a16.494 16.494 0 0 0-1.433-6.7 17.465 17.465 0 0 0-4.071-5.675 18.867 18.867 0 0 0-6.088-3.786 19.883 19.883 0 0 0-7.177-1.32z"/><circle cx="31.493" cy="36.624" r="19.139" fill="#fff"/><path fill="#14191B" d="m31.19 44.862-1.128-1.025c-4.021-3.651-6.66-6.064-6.66-9.032 0-2.413 1.873-4.313 4.298-4.313 1.362 0 2.66.64 3.511 1.622a4.642 4.642 0 0 1 3.51-1.622c2.405 0 4.299 1.879 4.299 4.313 0 2.947-2.66 5.36-6.66 9.032l-1.17 1.025z"/><path fill="#fff" d="M63.477 29.916v13.091h-3.158V32.87h-.077l-2.927 1.79v-2.736l3.227-2.007h2.934zm7.905 13.27c-.955 0-1.803-.172-2.544-.518-.742-.345-1.328-.82-1.758-1.425-.426-.605-.648-1.3-.665-2.084h3.068c.026.482.222.87.588 1.163.367.29.804.435 1.31.435.397 0 .749-.087 1.055-.262.307-.175.548-.42.723-.735.174-.32.26-.686.255-1.1a2.147 2.147 0 0 0-.262-1.105 1.86 1.86 0 0 0-.728-.735 2.067 2.067 0 0 0-1.061-.269c-.38-.004-.74.079-1.08.25a1.82 1.82 0 0 0-.768.696l-2.793-.524.569-7.057h8.4v2.55h-5.799l-.3 3.088h.077c.217-.362.567-.66 1.048-.895.486-.239 1.038-.358 1.656-.358.784 0 1.483.183 2.096.55a3.877 3.877 0 0 1 1.458 1.508c.357.644.536 1.381.536 2.212 0 .9-.213 1.696-.639 2.39a4.403 4.403 0 0 1-1.777 1.637c-.758.392-1.647.588-2.665.588zm12.233.14c-1.142 0-2.127-.27-2.953-.811-.827-.546-1.464-1.328-1.912-2.346-.447-1.023-.669-2.252-.665-3.688.005-1.436.229-2.655.672-3.656.447-1.006 1.082-1.771 1.904-2.295.827-.529 1.812-.793 2.954-.793 1.142 0 2.126.264 2.953.793.83.524 1.47 1.289 1.917 2.295.448 1.005.67 2.224.665 3.656 0 1.44-.224 2.672-.671 3.694-.448 1.023-1.085 1.805-1.911 2.346-.823.537-1.807.806-2.953.806zm0-2.588c.681 0 1.233-.347 1.655-1.042.422-.699.63-1.77.627-3.215 0-.946-.096-1.726-.288-2.34-.192-.618-.458-1.078-.8-1.38a1.744 1.744 0 0 0-1.194-.454c-.678 0-1.225.343-1.643 1.029-.418.682-.629 1.73-.633 3.145-.004.959.087 1.753.275 2.384.192.63.46 1.102.805 1.413.346.306.744.46 1.196.46z"/></svg>