<svg xmlns="http://www.w3.org/2000/svg" width="156" height="342" fill="none"><path fill="#fff" d="M37.958 280.386s-7.636 10.13-7.09 16.793l-.154 2.578-15.938-14.503 2.227-.902c3.53-2.413 7.252-3.846 9.304-7.594l11.65 3.628z"/><path fill="#000" d="M30.714 300.337a.58.58 0 0 1-.39-.151l-15.938-14.503a.585.585 0 0 1-.18-.531.57.57 0 0 1 .353-.434l2.167-.878a60.872 60.872 0 0 1 2.603-1.645c2.57-1.558 4.998-3.032 6.465-5.714a.577.577 0 0 1 .68-.274l11.653 3.628a.576.576 0 0 1 .29.899c-.075.099-7.497 10.033-6.974 16.398a.422.422 0 0 1 0 .081l-.154 2.578a.582.582 0 0 1-.575.546zm-14.87-14.892 14.365 13.07.081-1.33c-.452-5.885 5.032-14.101 6.726-16.487l-10.44-3.252c-1.624 2.692-4.065 4.174-6.643 5.738-.857.52-1.744 1.056-2.604 1.644a.539.539 0 0 1-.11.057l-1.374.56z"/><path fill="#fff" d="m33.605 293.856-.245 3.14a38.464 38.464 0 0 0 3.003 18.196l1.89 4.405c.18.418.141.902-.104 1.286l-.126.196c-1.388 2.175-7.51 4.05-15.253-1.199-4.79-3.247-14.506-12.266-21.148-28.018a2.456 2.456 0 0 1 .682-2.842c3.017-2.53 10.462-8.307 16.268-8.953a1.088 1.088 0 0 1 1.223 1.064l.055 6.253a5.067 5.067 0 0 0 5.131 5.019l7.166-.097a1.434 1.434 0 0 1 1.458 1.55z"/><path fill="#000" d="M32.405 323.845c-2.381 0-5.824-.687-9.957-3.49-2.206-1.495-13.606-9.889-21.357-28.274a3.027 3.027 0 0 1 .842-3.511c2.993-2.509 10.597-8.42 16.576-9.086.478-.052.954.097 1.312.413.348.308.551.753.554 1.221l.055 6.253a4.444 4.444 0 0 0 1.349 3.165 4.462 4.462 0 0 0 3.197 1.279l7.165-.097a2.036 2.036 0 0 1 1.5.638c.388.413.584.975.54 1.539l-.246 3.14a38.049 38.049 0 0 0 2.959 17.922l1.89 4.405a1.95 1.95 0 0 1-.15 1.825l-.125.196c-.672 1.053-2.089 1.871-3.882 2.24a10.53 10.53 0 0 1-2.222.222zm-13.708-43.211c-.021 0-.042 0-.063.003-5.665.632-13.05 6.381-15.961 8.822a1.873 1.873 0 0 0-.52 2.175c7.625 18.082 18.779 26.301 20.938 27.764 5.34 3.621 9.372 3.496 11.3 3.098 1.729-.355 2.756-1.126 3.14-1.73l.126-.196a.8.8 0 0 0 .06-.748l-1.89-4.405a39.2 39.2 0 0 1-3.048-18.468l.246-3.14a.863.863 0 0 0-.87-.93l-7.166.096a5.613 5.613 0 0 1-4.02-1.607 5.599 5.599 0 0 1-1.697-3.984l-.057-6.253a.49.49 0 0 0-.165-.366.528.528 0 0 0-.353-.131z"/><path fill="#000" d="M37.45 318.577a.61.61 0 0 1-.23-.047l-.989-.429a21.517 21.517 0 0 1-11.577-12.263l-.662-1.798a.588.588 0 0 0-.528-.392.594.594 0 0 0-.572.329l-.855 1.681a1.926 1.926 0 0 1-1.44 1.043 1.929 1.929 0 0 1-1.69-.56 48.508 48.508 0 0 1-10.824-16.887l-1.354-3.565a.578.578 0 0 1 1.08-.411l1.354 3.566a47.35 47.35 0 0 0 10.566 16.484.79.79 0 0 0 .687.228.78.78 0 0 0 .586-.426l.855-1.681a1.73 1.73 0 0 1 1.67-.959 1.735 1.735 0 0 1 1.548 1.15l.66 1.798A20.35 20.35 0 0 0 36.69 317.04l.988.428a.579.579 0 0 1-.227 1.109z"/><path fill="#fff" d="M96.03 308.832s-.877 9.973 3.256 14.705l1.289 2.033-19.389-1.03.936-2.122c1.665-3.775 2.946-9.853 2.622-13.818l11.285.232z"/><path fill="#000" d="M100.576 326.148h-.032l-19.388-1.03a.576.576 0 0 1-.5-.81l.936-2.123c1.744-3.947 2.873-9.894 2.575-13.538a.581.581 0 0 1 .588-.627l11.283.232a.582.582 0 0 1 .564.628c-.008.096-.802 9.784 3.119 14.273.018.023.037.047.052.07l1.289 2.034c.115.183.12.416.01.601a.565.565 0 0 1-.496.29zm-18.521-2.141 17.43.926-.663-1.048c-3.66-4.233-3.532-12.195-3.412-14.485l-10.05-.209c.169 4.219-1.2 10.046-2.71 13.462l-.595 1.354z"/><path fill="#fff" d="m98.691 317.09 1.948 2.005a34.17 34.17 0 0 0 13.878 8.661l4.041 1.32c.385.125.683.434.795.823l.058.199c.635 2.198-1.702 7.374-9.735 9.455-4.831 1.252-16.027 2.41-29.866-1.945-1.64-.515-2.711-2.086-2.633-3.801.178-3.971.879-11.044 3.55-14.822.33-.465.965-.528 1.396-.154l4.201 3.628a4.491 4.491 0 0 0 6.347-.478l4.133-4.828a1.276 1.276 0 0 1 1.887-.063z"/><path fill="#000" d="M99.138 341.269c-5.142 0-11.824-.693-19.504-3.111-1.877-.591-3.127-2.392-3.038-4.381.178-3.974.892-11.223 3.655-15.128.25-.353.622-.578 1.048-.63.429-.052.865.083 1.197.371l4.201 3.628a3.893 3.893 0 0 0 2.852.941 3.894 3.894 0 0 0 2.68-1.356l4.135-4.829c.34-.394.831-.632 1.352-.648a1.815 1.815 0 0 1 1.39.562l1.948 2.005a33.64 33.64 0 0 0 13.643 8.512l4.041 1.32c.567.185 1.007.64 1.171 1.213l.058.198c.313 1.083.026 2.52-.787 3.948-.949 1.668-3.43 4.692-9.359 6.229-1.158.298-4.969 1.156-10.683 1.156zm-17.653-22.103c-.016 0-.03 0-.045.003a.345.345 0 0 0-.243.149c-2.593 3.668-3.27 10.666-3.445 14.513-.066 1.464.85 2.79 2.227 3.224 15.912 5.008 27.406 2.491 29.547 1.937 5.518-1.43 7.782-4.172 8.642-5.681.766-1.343.855-2.457.682-3.056l-.057-.198a.655.655 0 0 0-.418-.434l-4.042-1.32a34.844 34.844 0 0 1-14.113-8.807l-1.948-2.005a.676.676 0 0 0-.523-.212.697.697 0 0 0-.51.243l-4.135 4.828a5.037 5.037 0 0 1-3.471 1.76 5.034 5.034 0 0 1-3.694-1.219l-4.2-3.628a.383.383 0 0 0-.254-.097z"/><path fill="#000" d="M95.817 334.207a43.02 43.02 0 0 1-15.166-2.756l-3.169-1.186a.582.582 0 0 1-.34-.745.582.582 0 0 1 .745-.34l3.169 1.186a41.921 41.921 0 0 0 17.143 2.617.616.616 0 0 0 .502-.295.636.636 0 0 0 .055-.581l-.62-1.552a1.607 1.607 0 0 1 .356-1.747 1.601 1.601 0 0 1 1.741-.371l1.584.615a17.99 17.99 0 0 0 14.092-.497l.866-.408a.577.577 0 1 1 .491 1.046l-.865.408a19.156 19.156 0 0 1-15.002.528l-1.585-.615a.46.46 0 0 0-.501.107.459.459 0 0 0-.102.502l.62 1.553a1.78 1.78 0 0 1-.155 1.631 1.766 1.766 0 0 1-1.414.826 39.99 39.99 0 0 1-2.445.074zM61.204 145.651s-7.827 25.89 5.516 44.264c17.977 24.758 7.706 81.884 16.701 120.296.173.734.84 1.247 1.595 1.239l10.898-.118a1.616 1.616 0 0 0 1.545-1.197c2.564-9.578 19.773-74.408 19.221-87.329-.125-2.949-.502-6.386-1.019-9.999-2.515-17.509-7.803-34.509-15.483-50.442L88.192 137.5l-26.988 8.151z"/><path fill="#000" d="M52.763 142.726s-9.842 18.293-5.487 37.538c4.355 19.245-2.193 35.209-6.813 42.725-4.564 7.424-12.924 26.154-15.86 53.991-.07.677.173 1.352.665 1.822 1.537 1.469 5.34 4.45 11.086 4.698a2.215 2.215 0 0 0 1.757-.748c4.53-5.147 30.6-35.363 39.865-59.397 10.16-26.361 12.066-70.168 12.066-70.168s-25.293 2.672-37.28-10.461z"/><path fill="#fff" d="M76.718 231.098a.581.581 0 0 1-.577-.536c-1.114-15.392-3.082-30.927-9.89-40.304-5.118-7.048-7.776-15.951-7.902-26.462a.58.58 0 0 1 .573-.586c.329 0 .58.251.585.572.123 10.266 2.708 18.947 7.68 25.796 6.977 9.61 8.982 25.336 10.11 40.9a.58.58 0 0 1-.537.62h-.042z"/><path fill="#FCC55A" d="M50.168 79.475s24.32-10.856 45.838-6.064c0 0 16.101 6.621 13.884 20.996-6.465 10.621-5.785 25.459-5.824 32.867-.032 6.399-2.22 25.32-3.775 27.539-3.351 4.782-9.633 2.588-25.451 1.213-18.581-1.615-20.824-5.173-24.64-9.29-2.544-2.745-.683-13.071-.377-14.955 1.532-9.435 5.646-25.119.345-52.306z"/><path fill="#FCC55A" d="m86.457 85.13 1.425-8.014c3.557-5.83 15.911-7.725 22.269-10.221 26.366-10.352 28.101-35.667 30.216-46.827l9.414.494s9.583 64.116-50.202 82.156L86.457 85.131zm-66.59-72.296c9.116 30.938 37.638 62.025 45.438 62.639 0 0 7.644 62.184-41.182-5.087C9.317 49.988 13.513 14.89 13.513 14.89l6.354-2.057z"/><path fill="#fff" d="M19.716 14.685a7.664 7.664 0 0 0 1.422-1.15c2.274-2.311 5.978-8.002 2.551-10.84-2.574-2.134-7.165-.973-9.76.47-3.247 1.806-2.466 6.668-1.104 9.494 1.514 3.14 4.392 3.584 6.891 2.026z"/><path fill="#000" d="M16.904 16.136a4.69 4.69 0 0 1-1.297-.18c-1.396-.405-2.538-1.456-3.302-3.04-1.453-3.015-2.292-8.23 1.344-10.253 2.622-1.459 7.56-2.774 10.412-.41.99.82 1.526 1.903 1.592 3.218.165 3.238-2.612 6.96-4.102 8.474-.478.487-.99.9-1.526 1.234-1.02.63-2.092.957-3.121.957zm3.06-14.025c-2.083 0-4.347.782-5.753 1.564-2.915 1.62-2.076 6.221-.863 8.739.617 1.278 1.509 2.12 2.58 2.43 1.075.312 2.311.082 3.482-.648a7.16 7.16 0 0 0 1.315-1.063c1.59-1.616 3.906-4.973 3.772-7.605-.05-.99-.433-1.772-1.176-2.384-.9-.748-2.094-1.033-3.356-1.033z"/><path fill="#fff" d="M146.41 21.113a7.805 7.805 0 0 0 1.697-.424c2.849-1.038 7.027-5.23 6.235-8.582-1.137-4.8-11.555-5.673-14.174-2.05-3.171 4.392.766 11.759 6.242 11.056z"/><path fill="#000" d="M145.701 21.738c-2.371 0-4.627-1.372-6.021-3.72-1.639-2.755-1.628-6.012.021-8.297 1.676-2.321 5.919-2.865 9.241-2.201 3.226.643 5.456 2.308 5.963 4.457.852 3.6-3.417 8.098-6.601 9.259a8.425 8.425 0 0 1-1.822.452 6 6 0 0 1-.781.05zm.509-13.33c-2.475 0-4.663.735-5.57 1.992-1.381 1.911-1.368 4.67.036 7.03 1.025 1.725 3.051 3.445 5.662 3.113a7.443 7.443 0 0 0 1.574-.392c2.75-1.001 6.551-5.024 5.869-7.905-.4-1.694-2.295-3.037-5.064-3.59a12.733 12.733 0 0 0-2.507-.247z"/><path fill="#000" d="M93.094 158.315c-2.413 0-5.386-.338-9.095-.761-2.666-.303-5.69-.648-9.204-.954-17.776-1.545-20.842-4.907-24.395-8.797-.204-.224-.41-.449-.622-.677-1.76-1.9-1.948-6.846-.575-15.12l.052-.319c.243-1.505.583-3.176.941-4.945 1.017-5.022 2.282-11.272 2.62-19.392.143-3.44-1.642-6.723-4.656-8.574-5.976-3.667-14.223-13.107-24.513-28.062C9.403 50.013 12.901 15.18 12.937 14.83a.578.578 0 0 1 .398-.49l6.355-2.056a.577.577 0 0 1 .732.386C28 38.396 41.347 53.863 56.729 70.021c3.181 3.343 8.049 4.533 12.398 3.027 4.387-1.516 15.167-1.166 21.203-.826 1.686.094 3.435-.274 5.053-1.074 2.583-1.276 5.798-2.173 8.907-3.04 2.096-.586 4.078-1.138 5.649-1.755 23.644-9.282 27.163-30.375 29.264-42.98.207-1.242.398-2.39.594-3.415a.584.584 0 0 1 .599-.47l9.413.494a.58.58 0 0 1 .538.468c.027.136 2.62 13.836-.669 30.018-3.04 14.965-11.863 35.188-36.626 46.54-4.054 1.86-6.851 5.736-7.301 10.12-.701 6.846-1.074 13.625-1.106 20.147-.031 6.185-2.206 25.482-3.879 27.869-1.684 2.405-4.041 3.171-7.672 3.171zM14.05 15.324c-.335 3.795-2.666 35.53 10.548 54.734C34.797 84.877 42.926 94.209 48.764 97.79c3.372 2.068 5.366 5.752 5.207 9.61-.34 8.211-1.616 14.511-2.64 19.574-.356 1.757-.693 3.42-.934 4.902l-.054.324c-1.697 10.213-.552 13.245.282 14.145.214.23.42.457.627.685 3.388 3.712 6.316 6.917 23.64 8.425 3.529.306 6.56.651 9.235.957 9.12 1.037 13.282 1.511 15.69-1.924 1.414-2.018 3.639-20.793 3.67-27.21.034-6.559.408-13.377 1.114-20.26.491-4.789 3.544-9.024 7.967-11.052 24.322-11.152 32.988-31.016 35.976-45.718 2.914-14.338 1.152-26.669.745-29.124l-8.449-.441c-.162.888-.324 1.856-.497 2.893-2.002 12.002-5.73 34.344-29.983 43.867-1.626.638-3.637 1.2-5.762 1.794-3.058.852-6.221 1.736-8.705 2.962-1.796.886-3.743 1.296-5.63 1.192-4.792-.272-16.404-.743-20.76.763-4.778 1.65-10.12.345-13.613-3.323-15.371-16.16-28.73-31.63-36.41-57.264l-5.429 1.757z"/><path fill="#fff" d="m71.457 73.364.716-18.673 13.562 6.878-.149 11.803c-.099 2.63-2.337 4.099-2.337 4.099-2.77 2.036-6.655 1.665-9.478-.296l-.654-.455a3.86 3.86 0 0 1-1.66-3.356z"/><path fill="#000" d="M78.925 79.424c-1.856 0-3.785-.594-5.484-1.773l-.654-.455a4.418 4.418 0 0 1-1.905-3.858l.716-18.67a.578.578 0 0 1 .84-.494l13.561 6.878a.58.58 0 0 1 .316.523l-.148 11.802c-.11 2.91-2.497 4.51-2.596 4.575-1.339.983-2.962 1.472-4.646 1.472zm-6.21-23.81-.68 17.771v.005a3.267 3.267 0 0 0 1.411 2.855l.654.455c2.792 1.937 6.412 2.062 8.807.303.044-.029 2.013-1.365 2.099-3.654l.144-11.427-12.436-6.308z"/><path fill="#000" d="M91.888 33.306c-3.62-.209.93 3.493-12.456-.392-5.33-1.547-2.635 4.635-4.018 4.238-5.11-1.47-4.935-1.425-7.432-.774-1.652.431-2.726 3.456-2.418 5.717.41 2.985 2.889 3.756 5.085 10.062 1.542 4.428 1.163 7.12 2.948 7.766 1.807.654 3.14-1.754 5.168-1.19 2.622.733 2.105 5.245 4.659 7.116 1.61 1.182 5.356 1.728 11.36-1.174a2.235 2.235 0 0 0 1.185-2.608c-.369-1.334-.845-3.017-1.433-4.586-2.805-7.481-5.484-9.172-4.514-11.11 1.487-2.969 7.141-1.265 8.077-3.704.973-2.53-1.255-9.076-6.21-9.36z"/><path fill="#fff" d="M87.058 67.387c-2.24 0-3.492-.709-3.976-1.067-1.349-.99-1.919-2.596-2.42-4.015-.513-1.451-.957-2.706-2.053-3.012-.792-.22-1.463.152-2.242.583-.853.474-1.82 1.007-2.965.594-1.424-.515-1.743-1.974-2.188-3.995-.245-1.121-.551-2.517-1.11-4.125-1.148-3.299-2.361-5.024-3.334-6.412-.876-1.247-1.566-2.233-1.777-3.76-.345-2.506.823-5.828 2.844-6.357l.225-.06c2.37-.62 2.496-.604 7.228.756.013-.191.015-.453.015-.662.005-1.066.01-2.525 1.046-3.301.734-.55 1.793-.615 3.241-.194 8.752 2.541 9.505 1.752 10.054 1.177.463-.486.957-.884 2.277-.805 2.125.122 4.034 1.333 5.375 3.411 1.403 2.175 1.981 5.071 1.34 6.736-.57 1.483-2.344 1.739-4.059 1.985-1.67.24-3.398.488-4.041 1.77-.374.742-.013 1.45 1.084 3.39.913 1.61 2.162 3.819 3.454 7.26.585 1.56 1.053 3.21 1.448 4.634a2.811 2.811 0 0 1-1.49 3.283c-3.461 1.673-6.075 2.186-7.976 2.186zm-8.924-9.317c.25 0 .512.034.787.11 1.673.468 2.26 2.13 2.83 3.738.468 1.323.952 2.69 2.013 3.469 1.582 1.158 5.24 1.445 10.768-1.229a1.659 1.659 0 0 0 .878-1.934c-.387-1.399-.847-3.02-1.417-4.538-1.257-3.357-2.483-5.516-3.377-7.095-1.111-1.96-1.783-3.145-1.114-4.478.913-1.82 3.035-2.128 4.91-2.397 1.45-.21 2.82-.408 3.144-1.255.447-1.166.11-3.615-1.233-5.696-.803-1.244-2.23-2.755-4.47-2.883-.892-.052-1.075.136-1.373.45-.878.92-1.785 1.871-11.212-.863-.727-.212-1.702-.382-2.224.008-.575.428-.578 1.51-.583 2.378-.003.785-.006 1.404-.437 1.728a.853.853 0 0 1-.774.12l-.065-.018c-4.737-1.362-4.734-1.36-6.833-.81l-.228.06c-1.236.322-2.28 2.98-1.989 5.08.172 1.249.76 2.088 1.576 3.251.962 1.37 2.28 3.247 3.48 6.698.583 1.672.896 3.108 1.15 4.258.423 1.929.661 2.867 1.45 3.152.62.225 1.17-.05 2.01-.517.688-.369 1.441-.787 2.333-.787z"/><path fill="#fff" d="m79.254 46.185 1.035 1.922c.489.904.912 1.84 1.27 2.805.672 1.806 1.948 4.864 2.643 6.59 2.24 5.555 9.113-.547 9.113-.547l.478-1.529.923-.374c.178-.073.345-.182.463-.334.295-.38.298-.884.044-1.252-1.38-2.026-4.26-6.577-5.296-10.663.003.002-5.897-1.514-10.673 3.382z"/><path fill="#000" d="M87.303 60.415c-.308 0-.614-.032-.912-.102-1.231-.29-2.146-1.16-2.724-2.593-.194-.479-.429-1.059-.688-1.686-.656-1.608-1.474-3.605-1.963-4.92a21.751 21.751 0 0 0-1.236-2.732l-1.035-1.921a.583.583 0 0 1 .094-.68c4.956-5.076 10.979-3.602 11.235-3.537a.576.576 0 0 1 .416.419c1.03 4.06 3.989 8.68 5.212 10.48.403.59.374 1.37-.068 1.934-.172.22-.413.397-.7.515l-.67.272-.397 1.268a.57.57 0 0 1-.167.258c-.154.136-3.448 3.025-6.397 3.025zm-7.335-14.121.831 1.54c.5.925.939 1.892 1.305 2.877.483 1.297 1.296 3.286 1.95 4.886.256.63.494 1.21.687 1.691.434 1.077 1.062 1.7 1.916 1.9 2.047.482 5.027-1.594 6.157-2.558l.428-1.373a.584.584 0 0 1 .335-.363l.923-.374c.1-.04.177-.094.225-.154a.479.479 0 0 0 .023-.573c-1.519-2.232-4.185-6.506-5.286-10.495a11.038 11.038 0 0 0-9.494 2.995z"/><path fill="#fff" d="M80.716 52.894s-2.483-4.624-4.35-3.048c-1.866 1.574.996 6.593 4.35 3.048z"/><path fill="#000" d="M89.91 53.962c-.084 0-.17-.006-.256-.01-.434-.04-.858-.356-1.192-.897-.61-.983-.96-2.81-.11-4.988.154-.395.497-.73.941-.915.538-.225 1.155-.214 1.736.034.794.34 1.218 1.182 1.299 2.578.102 1.751-.188 2.93-.886 3.61-.4.386-.926.588-1.532.588zm.19-5.814a.924.924 0 0 0-.363.07c-.183.076-.282.194-.31.27-.785 2.013-.28 3.364-.105 3.733.201.426.408.567.452.583.36.031.648-.053.86-.26.3-.29.635-.998.536-2.71-.052-.902-.254-1.432-.599-1.581a1.16 1.16 0 0 0-.47-.105z"/><path fill="#000" d="M78.474 49.578a.578.578 0 0 1-.07-1.153l11.318-1.427a.579.579 0 0 1 .144 1.147l-11.32 1.427c-.025.003-.049.006-.072.006zm16.39 3.212a.578.578 0 0 1-.308-1.067c.3-.352.9-2.32.094-3.7-.136-.23-.282-.286-.397-.307-.523-.096-1.35.39-1.668.64a.579.579 0 1 1-.716-.909c.143-.112 1.427-1.093 2.598-.868.5.094.907.392 1.179.86.933 1.6.457 3.474.287 4.01-.222.704-.499 1.14-.83 1.292a.605.605 0 0 1-.239.05z"/></svg>