<svg xmlns="http://www.w3.org/2000/svg" width="18" height="19" fill="none"><path fill="#fff" d="M16.56.722H1.538C.718.722 0 1.312 0 2.124v15.055c0 .816.717 1.543 1.538 1.543h15.018c.825 0 1.444-.732 1.444-1.543V2.124c.005-.812-.619-1.402-1.44-1.402zM5.58 15.726H3V7.708h2.58v8.018zm-1.2-9.237h-.02C3.535 6.489 3 5.875 3 5.106c0-.784.549-1.383 1.393-1.383.843 0 1.36.595 1.378 1.383 0 .769-.535 1.383-1.393 1.383zm10.624 9.237h-2.579v-4.384c0-1.05-.375-1.768-1.308-1.768-.713 0-1.135.482-1.322.952-.07.168-.09.398-.09.633v4.567H7.128V7.708h2.579v1.116c.375-.535.961-1.304 2.325-1.304 1.693 0 2.973 1.116 2.973 3.521v4.685z"/></svg>