<svg xmlns="http://www.w3.org/2000/svg" width="23" height="23" fill="none"><path fill="#fff" d="M15.766 2.506a4.745 4.745 0 0 1 3.275 1.311 4.393 4.393 0 0 1 1.363 3.152v8.924a4.393 4.393 0 0 1-1.363 3.151 4.745 4.745 0 0 1-3.275 1.311H6.492a4.745 4.745 0 0 1-3.275-1.31 4.392 4.392 0 0 1-1.362-3.152V6.969a4.392 4.392 0 0 1 1.362-3.152 4.745 4.745 0 0 1 3.275-1.31h9.274zm0-1.784H6.492C2.922.722 0 3.532 0 6.969v8.924c0 3.436 2.921 6.247 6.492 6.247h9.274c3.57 0 6.492-2.811 6.492-6.247V6.969c0-3.436-2.921-6.247-6.492-6.247z"/><path fill="#fff" d="M17.157 6.97a1.43 1.43 0 0 1-.773-.226 1.351 1.351 0 0 1-.512-.601 1.292 1.292 0 0 1-.08-.774c.055-.26.187-.498.382-.685.194-.187.442-.315.712-.366.27-.052.55-.025.804.076s.471.273.624.493a1.303 1.303 0 0 1-.172 1.691 1.435 1.435 0 0 1-.985.391zm-6.028.891c.734 0 1.451.21 2.061.602.61.392 1.086.95 1.367 1.602.28.652.354 1.37.21 2.063a3.53 3.53 0 0 1-1.015 1.828 3.762 3.762 0 0 1-1.9.977 3.845 3.845 0 0 1-2.143-.204 3.683 3.683 0 0 1-1.665-1.314 3.475 3.475 0 0 1-.625-1.984 3.507 3.507 0 0 1 1.088-2.523 3.789 3.789 0 0 1 2.622-1.047zm0-1.784c-1.1 0-2.176.314-3.091.902a5.405 5.405 0 0 0-2.05 2.403 5.167 5.167 0 0 0-.317 3.094 5.295 5.295 0 0 0 1.523 2.742 5.636 5.636 0 0 0 2.85 1.465c1.079.207 2.198.1 3.215-.305a5.524 5.524 0 0 0 2.497-1.972c.611-.88.938-1.916.938-2.975 0-1.42-.587-2.782-1.63-3.786a5.677 5.677 0 0 0-3.935-1.568z"/></svg>