<svg xmlns="http://www.w3.org/2000/svg" width="24" height="25" fill="none"><path fill="#18191D" d="M22.49 9.593c-.408-.418-.826-.857-.986-1.232-.161-.375-.15-.932-.161-1.5-.01-1.04-.032-2.229-.857-3.054-.825-.825-2.015-.846-3.054-.857-.568-.01-1.146-.021-1.5-.16-.353-.14-.814-.58-1.232-.986-.74-.707-1.586-1.511-2.7-1.511s-1.96.804-2.7 1.51c-.418.408-.857.826-1.232.986-.375.161-.932.15-1.5.161-1.04.01-2.229.032-3.054.857-.825.825-.846 2.015-.857 3.054-.01.568-.021 1.146-.16 1.5-.14.353-.58.814-.986 1.232-.707.74-1.511 1.586-1.511 2.7s.804 1.96 1.51 2.7c.408.418.826.857.986 1.232.161.375.15.932.161 1.5.01 1.04.032 2.229.857 3.054.825.825 2.015.846 3.054.857.568.01 1.146.021 1.5.16.353.14.814.58 1.232.986.74.707 1.586 1.511 2.7 1.511s1.96-.804 2.7-1.51c.418-.408.857-.826 1.232-.986.375-.161.932-.15 1.5-.161 1.04-.01 2.229-.032 3.054-.857.825-.825.846-2.015.857-3.054.01-.568.021-1.146.16-1.5.14-.354.58-.814.986-1.232.707-.74 1.511-1.586 1.511-2.7s-.804-1.96-1.51-2.7zm-5.186.75-6.279 6a.868.868 0 0 1-1.19 0l-3.139-3A.858.858 0 1 1 7.875 12.1l2.55 2.432 5.7-5.432a.857.857 0 0 1 1.179 1.243z"/></svg>