<svg xmlns="http://www.w3.org/2000/svg" width="23" height="22" fill="none"><path fill="url(#a)" d="M11.31 21.925A2.328 2.328 0 0 1 8.993 19.6V2.51A2.328 2.328 0 0 1 11.31.185a2.328 2.328 0 0 1 2.317 2.325V19.6a2.328 2.328 0 0 1-2.317 2.325z"/><path fill="url(#b)" d="M19.814 13.368H2.784a2.328 2.328 0 0 1-2.317-2.325 2.328 2.328 0 0 1 2.317-2.325h17.03a2.328 2.328 0 0 1 2.317 2.325 2.328 2.328 0 0 1-2.317 2.325z"/><defs><linearGradient id="a" x1="8.987" x2="13.621" y1="11.052" y2="11.052" gradientUnits="userSpaceOnUse"><stop stop-color="#EE91D3"/><stop offset="1" stop-color="#CC72B2"/></linearGradient><linearGradient id="b" x1=".474" x2="22.136" y1="11.053" y2="11.053" gradientUnits="userSpaceOnUse"><stop stop-color="#EE91D3"/><stop offset="1" stop-color="#CC72B2"/></linearGradient></defs></svg>