<svg xmlns="http://www.w3.org/2000/svg" width="403" height="352" fill="none"><g filter="url(#a)"><rect width="301.639" height="341.542" x="52.97" y=".111" fill="#1E2527" rx="23"/></g><rect width="242.408" height="144.576" x="82.586" y="163.545" fill="#FCC55A" rx="23"/><rect width="194.54" height="16.91" x="84.78" y="106.508" fill="#333A3D" rx="8.455"/><rect width="111.974" height="16.91" x="85.911" y="130.182" fill="#333A3D" rx="8.455"/><rect width="99.043" height="9" x="106.214" y="285.344" fill="#FFDA93" rx="4.5" transform="rotate(-90 106.214 285.344)"/><rect width="99.043" height="9" x="142.618" y="285.344" fill="#FFDA93" rx="4.5" transform="rotate(-90 142.618 285.344)"/><rect width="99.043" height="9" x="179.022" y="285.344" fill="#FFDA93" rx="4.5" transform="rotate(-90 179.022 285.344)"/><rect width="99.043" height="9" x="215.426" y="285.344" fill="#FFDA93" rx="4.5" transform="rotate(-90 215.426 285.344)"/><rect width="99.043" height="9" x="251.83" y="285.344" fill="#FFDA93" rx="4.5" transform="rotate(-90 251.83 285.344)"/><rect width="99.043" height="9" x="288.234" y="285.344" fill="#FFDA93" rx="4.5" transform="rotate(-90 288.234 285.344)"/><g filter="url(#b)"><path stroke="url(#c)" stroke-linecap="round" stroke-width="14" d="M11.602 233.477c11.904 5.366 38.475 19.965 87.45 6.77 21.995-6.863 43.791-15.395 79.714 8.896 39.045 26.401 82.81 3.575 113.883-18.022 31.072-21.598 47.304-41.232 99.247-35.342"/></g><circle cx="109.272" cy="65.057" r="19.843" fill="#fff"/><path fill="#313131" d="M117.176 71.503a.639.639 0 0 1-.548.316h-15.17a.633.633 0 0 1-.547-.948c1.204-2.08 3.058-3.572 5.222-4.28a5.69 5.69 0 1 1 5.82 0c2.164.708 4.018 2.2 5.222 4.28a.637.637 0 0 1 .001.632z"/><defs><filter id="a" width="302.639" height="351.542" x="52.97" y=".111" color-interpolation-filters="sRGB" filterUnits="userSpaceOnUse"><feFlood flood-opacity="0" result="BackgroundImageFix"/><feColorMatrix in="SourceAlpha" result="hardAlpha" values="0 0 0 0 0 0 0 0 0 0 0 0 0 0 0 0 0 0 127 0"/><feOffset dx="1" dy="10"/><feComposite in2="hardAlpha" operator="out"/><feColorMatrix values="0 0 0 0 0 0 0 0 0 0 0 0 0 0 0 0 0 0 0.25 0"/><feBlend in2="BackgroundImageFix" result="effect1_dropShadow_322_473"/><feBlend in="SourceGraphic" in2="effect1_dropShadow_322_473" result="shape"/></filter><filter id="b" width="402.296" height="93.296" x=".6" y="187.721" color-interpolation-filters="sRGB" filterUnits="userSpaceOnUse"><feFlood flood-opacity="0" result="BackgroundImageFix"/><feColorMatrix in="SourceAlpha" result="hardAlpha" values="0 0 0 0 0 0 0 0 0 0 0 0 0 0 0 0 0 0 127 0"/><feOffset dy="9"/><feGaussianBlur stdDeviation="2"/><feComposite in2="hardAlpha" operator="out"/><feColorMatrix values="0 0 0 0 0 0 0 0 0 0 0 0 0 0 0 0 0 0 0.25 0"/><feBlend in2="BackgroundImageFix" result="effect1_dropShadow_322_473"/><feBlend in="SourceGraphic" in2="effect1_dropShadow_322_473" result="shape"/></filter><linearGradient id="c" x1="49.818" x2="325.215" y1="224.38" y2="236.225" gradientUnits="userSpaceOnUse"><stop stop-color="#6637ED"/><stop offset="1" stop-color="#FF54CF"/></linearGradient></defs></svg>