<svg xmlns="http://www.w3.org/2000/svg" width="135" height="137" fill="none"><path fill="#6637ED" d="M.674 72.357a64.993 64.993 0 1 1 66.036 64.207A65.237 65.237 0 0 1 .674 72.357zm96.053-1.605a31.076 31.076 0 1 0-30.498 31.718A31.172 31.172 0 0 0 96.727 70.8v-.048z"/><path fill="#FF54CF" d="M.674 72.357a65.234 65.234 0 0 1 63.95-66.326l.546 34.062a31.22 31.22 0 0 0 .995 62.425l.546 34.062A65.219 65.219 0 0 1 .674 72.357z"/><path fill="#FCC55A" d="M58.781.782c41.927-.674 75.443 31.863 76.037 73.966l-39.68.642c-.32-20.129-15.634-32.81-35.683-32.488L58.782.782z"/></svg>