<svg xmlns="http://www.w3.org/2000/svg" width="93" height="40" fill="none"><path fill="#fff" d="M87.266.812a4.33 4.33 0 0 1 4.33 4.33v29.804a4.33 4.33 0 0 1-4.33 4.33H5.11a4.33 4.33 0 0 1-4.33-4.33V5.142A4.33 4.33 0 0 1 5.11.812h82.157z"/><path fill="#000" d="M87.267 39.824H5.11a4.882 4.882 0 0 1-4.875-4.878V5.142A4.881 4.881 0 0 1 5.11.267h16.207a.545.545 0 0 1 0 1.09H5.11a3.79 3.79 0 0 0-3.785 3.785v29.804a3.79 3.79 0 0 0 3.785 3.785h82.157a3.79 3.79 0 0 0 3.786-3.785V5.142a3.79 3.79 0 0 0-3.786-3.785H32.238a.545.545 0 0 1 0-1.09h55.03a4.883 4.883 0 0 1 4.877 4.875v29.804a4.885 4.885 0 0 1-4.878 4.878z"/><path fill="#000" d="M79.608 15.543H14.313a.545.545 0 0 1 0-1.09h65.295a.545.545 0 0 1 0 1.09zm-.001 8.727H65.955a.545.545 0 0 1 0-1.09h13.652a.545.545 0 0 1 0 1.09zm-22.378 0H14.313a.545.545 0 0 1 0-1.09h42.916a.545.545 0 0 1 0 1.09z"/></svg>