<svg xmlns="http://www.w3.org/2000/svg" width="43" height="43" fill="none"><g clip-path="url(#a)"><path fill="#888" d="m32.877 38.014-3.576-2.015c-2.404.71-3.711 1.094-6.134 1.804l-1.923 3.626c-4.5-1.094-3.904-.94-8.403-2.034l-.038-4.105c-1.808-1.727-2.808-2.667-4.615-4.394l-4.115.154c-1.308-4.432-1.135-3.837-2.443-8.269l3.539-2.09c.596-2.418.923-3.76 1.519-6.178L4.496 11.04l5.96-6.235 3.577 1.996c2.404-.71 3.711-1.094 6.115-1.785l1.923-3.625c4.5 1.093 3.903.94 8.403 2.033l.038 4.106c1.808 1.726 2.808 2.666 4.615 4.393l4.115-.154c1.308 4.432 1.135 3.837 2.442 8.269l-3.538 2.091c-.596 2.436-.904 3.76-1.5 6.197l2.193 3.472c-3.192 3.3-2.77 2.878-5.962 6.216z"/><path fill="#000" d="M21.244 42.139c-.058 0-.116 0-.173-.02l-8.403-2.033a.737.737 0 0 1-.558-.69l-.038-3.8-4.173-3.97-3.807.134c-.327 0-.635-.192-.712-.518L.938 22.973a.721.721 0 0 1 .327-.825l3.269-1.937 1.365-5.602-2.019-3.185a.72.72 0 0 1 .096-.882l5.961-6.235a.676.676 0 0 1 .866-.135l3.307 1.861 5.538-1.63 1.769-3.358a.724.724 0 0 1 .807-.364l8.404 2.033a.737.737 0 0 1 .557.691l.039 3.799 4.192 3.97 3.807-.134c.327 0 .635.192.711.518l2.443 8.269a.721.721 0 0 1-.327.825l-3.27 1.938-1.365 5.601 2.02 3.223a.724.724 0 0 1-.097.883l-5.96 6.235a.76.76 0 0 1-.885.134l-3.327-1.86-5.538 1.63-1.769 3.357c-.096.211-.346.346-.615.346zm-7.672-3.32 7.306 1.765 1.654-3.127a.667.667 0 0 1 .442-.345l6.134-1.803a.706.706 0 0 1 .558.057l3.077 1.746 5.192-5.43-1.885-2.992a.81.81 0 0 1-.096-.556l1.5-6.197a.699.699 0 0 1 .327-.441l3.057-1.803-2.115-7.195-3.538.135a.727.727 0 0 1-.52-.192l-4.614-4.393a.76.76 0 0 1-.231-.518l-.058-3.55-7.307-1.764-1.653 3.127a.667.667 0 0 1-.443.345L14.225 7.49a.707.707 0 0 1-.557-.057L10.59 5.688l-5.192 5.43 1.885 2.992a.729.729 0 0 1 .096.556l-1.5 6.197a.699.699 0 0 1-.327.441l-3.057 1.804 2.115 7.194 3.538-.135c.192 0 .385.058.52.192l4.614 4.393a.76.76 0 0 1 .23.518l.059 3.55z"/><path fill="#888" d="M29.743 21.4c0 4.451-3.615 8.058-8.076 8.058s-8.076-3.607-8.076-8.058c0-4.45 3.615-8.057 8.076-8.057s8.076 3.607 8.076 8.057z"/><path fill="#000" d="M21.667 30.186c-4.846 0-8.807-3.933-8.807-8.786 0-4.854 3.942-8.787 8.807-8.787 4.846 0 8.807 3.933 8.807 8.787 0 4.854-3.961 8.786-8.807 8.786zm0-16.134c-4.057 0-7.365 3.3-7.365 7.348s3.308 7.347 7.365 7.347 7.365-3.3 7.365-7.347c0-4.048-3.308-7.348-7.365-7.348z"/></g><defs><clipPath id="a"><path fill="#fff" d="M.919.661h41.477v41.477H.919z"/></clipPath></defs></svg>