<svg xmlns="http://www.w3.org/2000/svg" width="34" height="32" fill="none"><path fill="url(#a)" fill-rule="evenodd" d="M21.931 30.609c5.429 0 9.83-4.36 9.83-9.74 0-5.378-4.401-9.739-9.83-9.739-5.428 0-9.829 4.36-9.829 9.74 0 5.378 4.4 9.739 9.83 9.739zm11.234-9.74C33.165 27.018 28.135 32 21.93 32s-11.233-4.983-11.233-11.13c0-6.148 5.03-11.13 11.233-11.13 6.204 0 11.234 4.982 11.234 11.13z" clip-rule="evenodd"/><path fill="url(#b)" fill-rule="evenodd" d="M12.102 29.913c5.428 0 9.83-4.36 9.83-9.74 0-5.378-4.401-9.738-9.83-9.738s-9.83 4.36-9.83 9.739c0 5.379 4.401 9.739 9.83 9.739zm11.233-9.74c0 6.148-5.029 11.131-11.233 11.131-6.204 0-11.233-4.983-11.233-11.13 0-6.147 5.029-11.13 11.233-11.13 6.204 0 11.233 4.983 11.233 11.13z" clip-rule="evenodd"/><path fill="url(#c)" fill-rule="evenodd" d="M17.017 20.87c5.428 0 9.829-4.36 9.829-9.74 0-5.378-4.4-9.739-9.83-9.739-5.428 0-9.829 4.36-9.829 9.74 0 5.378 4.401 9.739 9.83 9.739zm11.233-9.74c0 6.148-5.03 11.13-11.233 11.13-6.204 0-11.234-4.982-11.234-11.13C5.783 4.983 10.813 0 17.017 0S28.25 4.983 28.25 11.13z" clip-rule="evenodd"/><defs><linearGradient id="a" x1="22.633" x2="14.008" y1="33.739" y2="-.038" gradientUnits="userSpaceOnUse"><stop/><stop offset="0" stop-color="#F047FF"/><stop offset=".51" stop-color="#FF4E8D"/><stop offset="1" stop-color="#FFD748"/></linearGradient><linearGradient id="b" x1="22.633" x2="14.008" y1="33.739" y2="-.038" gradientUnits="userSpaceOnUse"><stop/><stop offset="0" stop-color="#F047FF"/><stop offset=".51" stop-color="#FF4E8D"/><stop offset="1" stop-color="#FFD748"/></linearGradient><linearGradient id="c" x1="22.633" x2="14.008" y1="33.739" y2="-.038" gradientUnits="userSpaceOnUse"><stop/><stop offset="0" stop-color="#F047FF"/><stop offset=".51" stop-color="#FF4E8D"/><stop offset="1" stop-color="#FFD748"/></linearGradient></defs></svg>