<svg xmlns="http://www.w3.org/2000/svg" width="25" height="25" fill="none"><path fill="#6637ED" d="M22.823 9.77c-.407-.418-.825-.857-.986-1.232-.16-.375-.15-.932-.16-1.5-.011-1.04-.033-2.228-.858-3.053-.825-.825-2.014-.847-3.053-.858-.568-.01-1.147-.02-1.5-.16-.354-.14-.815-.579-1.232-.986-.74-.707-1.586-1.51-2.7-1.51-1.115 0-1.961.803-2.7 1.51-.418.407-.858.825-1.233.986-.375.16-.932.15-1.5.16-1.039.011-2.228.033-3.053.858C3.023 4.81 3 5.999 2.99 7.038c-.011.568-.022 1.147-.161 1.5-.14.354-.579.814-.986 1.232-.707.74-1.51 1.586-1.51 2.7 0 1.115.803 1.961 1.51 2.7.407.418.825.857.986 1.232.16.375.15.933.16 1.5.011 1.04.033 2.23.858 3.054.825.825 2.014.846 3.053.857.568.01 1.147.022 1.5.16.354.14.815.58 1.232.987.74.707 1.586 1.51 2.7 1.51 1.115 0 1.961-.803 2.7-1.51.418-.408.858-.825 1.233-.986.375-.16.932-.15 1.5-.16 1.039-.012 2.228-.033 3.053-.858.825-.825.847-2.014.857-3.053.011-.568.022-1.147.161-1.5.14-.354.579-.815.986-1.233.707-.739 1.51-1.585 1.51-2.7 0-1.114-.803-1.96-1.51-2.7zm-5.186.75-6.279 6a.868.868 0 0 1-1.189 0l-3.14-3a.856.856 0 0 1 .56-1.503.859.859 0 0 1 .62.26l2.55 2.433 5.7-5.433a.857.857 0 0 1 1.178 1.243z"/></svg>