<svg xmlns="http://www.w3.org/2000/svg" width="113" height="89" fill="none"><g fill="#fff" opacity=".2"><path d="M111.558 88.883H29.542a.728.728 0 0 1-.736-.735c0-.412.323-.736.736-.736h81.28V2.353H46.057a.728.728 0 0 1-.736-.735c0-.412.324-.735.736-.735h65.501c.412 0 .736.323.736.735v86.53a.737.737 0 0 1-.736.735zm-90.583 0H1.03a.728.728 0 0 1-.736-.735V1.618c0-.412.324-.735.736-.735h36.46c.412 0 .736.323.736.735a.728.728 0 0 1-.736.735H1.766v85.06h19.209c.412 0 .736.323.736.735a.728.728 0 0 1-.736.735z"/><path d="M21.504 39.582H9.376a.728.728 0 0 1-.736-.735V26.73c0-.411.323-.735.736-.735h12.128c.413 0 .736.324.736.735v12.116a.748.748 0 0 1-.736.735zm-11.392-1.47h10.656V27.466H10.112v10.646zm27.731 1.47H25.714a.728.728 0 0 1-.736-.735V26.73c0-.411.324-.735.736-.735h12.129c.412 0 .736.324.736.735v12.116a.738.738 0 0 1-.736.735zm-11.393-1.47h10.657V27.466H26.45v10.646zm27.732 1.47h-12.13a.728.728 0 0 1-.735-.735V26.73c0-.411.324-.735.736-.735h12.129c.412 0 .736.324.736.735v12.116a.738.738 0 0 1-.736.735zm-11.393-1.47h10.657V27.466H42.789v10.646zm27.731 1.47H58.391a.728.728 0 0 1-.736-.735V26.73c0-.411.324-.735.736-.735H70.52c.412 0 .736.324.736.735v12.116a.738.738 0 0 1-.736.735zm-11.378-1.47h10.657V27.466H59.142v10.646zm27.716 1.47H74.73a.728.728 0 0 1-.736-.735V26.73c0-.411.323-.735.736-.735h12.128c.413 0 .736.324.736.735v12.116a.738.738 0 0 1-.736.735zm-11.378-1.47h10.657V27.466H75.48v10.646zm27.732 1.47H91.083a.728.728 0 0 1-.736-.735V26.73c0-.411.324-.735.736-.735h12.129c.412 0 .736.324.736.735v12.116a.748.748 0 0 1-.736.735zm-11.393-1.47h10.657V27.466H91.819v10.646zM21.504 56.433H9.376a.728.728 0 0 1-.736-.736V43.582c0-.412.323-.735.736-.735h12.128c.413 0 .736.323.736.735v12.115a.747.747 0 0 1-.736.736zm-11.392-1.47h10.656V44.316H10.112v10.645zm27.731 1.47H25.714a.728.728 0 0 1-.736-.736V43.582c0-.412.324-.735.736-.735h12.129c.412 0 .736.323.736.735v12.115a.738.738 0 0 1-.736.736zm-11.393-1.47h10.657V44.316H26.45v10.645zm27.732 1.47h-12.13a.728.728 0 0 1-.735-.736V43.582c0-.412.324-.735.736-.735h12.129c.412 0 .736.323.736.735v12.115a.738.738 0 0 1-.736.736zm-11.393-1.47h10.657V44.316H42.789v10.645zm27.731 1.47H58.391a.728.728 0 0 1-.736-.736V43.582c0-.412.324-.735.736-.735H70.52c.412 0 .736.323.736.735v12.115a.738.738 0 0 1-.736.736zm-11.378-1.47h10.657V44.316H59.142v10.645zm27.716 1.47H74.73a.728.728 0 0 1-.736-.736V43.582c0-.412.323-.735.736-.735h12.128c.413 0 .736.323.736.735v12.115a.738.738 0 0 1-.736.736zm-11.378-1.47h10.657V44.316H75.48v10.645zm27.732 1.47H91.083a.728.728 0 0 1-.736-.736V43.582c0-.412.324-.735.736-.735h12.129c.412 0 .736.323.736.735v12.115a.748.748 0 0 1-.736.736zm-11.393-1.47h10.657V44.316H91.819v10.645zM21.504 73.282H9.376a.728.728 0 0 1-.736-.735V60.432c0-.412.323-.736.736-.736h12.128c.413 0 .736.324.736.736v12.115a.748.748 0 0 1-.736.735zm-11.392-1.47h10.656V61.167H10.112v10.645zm27.731 1.47H25.714a.728.728 0 0 1-.736-.735V60.432c0-.412.324-.736.736-.736h12.129c.412 0 .736.324.736.736v12.115a.738.738 0 0 1-.736.735zm-11.393-1.47h10.657V61.167H26.45v10.645zm27.732 1.47h-12.13a.728.728 0 0 1-.735-.735V60.432c0-.412.324-.736.736-.736h12.129c.412 0 .736.324.736.736v12.115a.738.738 0 0 1-.736.735zm-11.393-1.47h10.657V61.167H42.789v10.645zm27.731 1.47H58.391a.728.728 0 0 1-.736-.735V60.432c0-.412.324-.736.736-.736H70.52c.412 0 .736.324.736.736v12.115a.738.738 0 0 1-.736.735zm-11.378-1.47h10.657V61.167H59.142v10.645zm27.716 1.47H74.73a.728.728 0 0 1-.736-.735V60.432c0-.412.323-.736.736-.736h12.128c.413 0 .736.324.736.736v12.115a.738.738 0 0 1-.736.735zm-11.378-1.47h10.657V61.167H75.48v10.645zm27.732 1.47H91.083a.728.728 0 0 1-.736-.735V60.432c0-.412.324-.736.736-.736h12.129c.412 0 .736.324.736.736v12.115a.748.748 0 0 1-.736.735zm-11.393-1.47h10.657V61.167H91.819v10.645zm11.849-53.3H9.832a.728.728 0 0 1-.736-.735v-4.205c0-.412.324-.735.736-.735h93.836c.413 0 .736.323.736.735v4.205a.728.728 0 0 1-.736.735zm-93.1-1.47h92.364v-2.735H10.568v2.735z"/></g></svg>