<svg xmlns="http://www.w3.org/2000/svg" width="181" height="165" fill="none"><path fill="#FCC55A" d="M171.972 71.89c-6.899-7.338-17.484-9.499-26.568-13.845-13.272-6.362-23.516-17.57-32.942-28.876C102.206 16.849 89.276 1.197 71.865.953 53.685.696 35.31 11.917 23.821 25.274 10.83 40.377 3.87 59.95 1.196 79.692c-1.978 14.59-1.636 30.036 4.81 43.271 1.637 3.37 3.75 6.544 6.216 9.414-2.845 5.091-7.094 11.257-12.088 14.041 0 0 13.357-.379 21.904-5.617 5.653 3.492 12.1 5.482 18.766 5.165 11.05-.525 22.026-7.021 32.612-3.822 5.287 1.6 9.56 5.409 14.005 8.681 16.837 12.393 40.023 17.777 59.106 9.255 22.38-10 33.564-36.299 33.735-60.804.061-9.78-1.599-20.255-8.29-27.386z"/><path fill="#fff" d="M130.837 61.145H38.789v66.884h92.048V61.144z"/><path fill="#4B4DF6" d="M46.47 68.214a1.829 1.829 0 0 1-1.832-1.832v-8.889c0-1.013.818-1.83 1.831-1.83a1.83 1.83 0 0 1 1.832 1.83v8.89c0 1.013-.83 1.83-1.832 1.83zm10.951 0a1.83 1.83 0 0 1-1.831-1.832v-8.889a1.83 1.83 0 0 1 1.831-1.83c1.014 0 1.832.817 1.832 1.83v8.89a1.829 1.829 0 0 1-1.832 1.83zm10.953 0a1.829 1.829 0 0 1-1.831-1.832v-8.889c0-1.013.818-1.83 1.831-1.83 1.014 0 1.832.817 1.832 1.83v8.89a1.829 1.829 0 0 1-1.832 1.83zm10.963 0a1.829 1.829 0 0 1-1.831-1.832v-8.889c0-1.013.818-1.83 1.831-1.83 1.014 0 1.832.817 1.832 1.83v8.89a1.829 1.829 0 0 1-1.832 1.83zm10.953 0a1.83 1.83 0 0 1-1.832-1.832v-8.889c0-1.013.818-1.83 1.831-1.83a1.83 1.83 0 0 1 1.832 1.83v8.89a1.83 1.83 0 0 1-1.832 1.83zm10.962 0a1.829 1.829 0 0 1-1.831-1.832v-8.889c0-1.013.818-1.83 1.831-1.83a1.83 1.83 0 0 1 1.832 1.83v8.89a1.83 1.83 0 0 1-1.832 1.83zm10.953 0a1.829 1.829 0 0 1-1.831-1.832v-8.889c0-1.013.818-1.83 1.831-1.83a1.83 1.83 0 0 1 1.832 1.83v8.89a1.83 1.83 0 0 1-1.832 1.83zm10.965 0a1.829 1.829 0 0 1-1.831-1.832v-8.889c0-1.013.818-1.83 1.831-1.83a1.83 1.83 0 0 1 1.832 1.83v8.89a1.837 1.837 0 0 1-1.832 1.83z"/><path fill="#D3D3D3" d="M74.368 76.433h-9.352v9.352h9.352v-9.352zm14.652 0h-9.352v9.352h9.352v-9.352zm14.664 0h-9.353v9.352h9.353v-9.352z"/><path fill="#FFC278" d="M118.348 76.433h-9.353v9.352h9.353v-9.352zm-58.646 13.49H50.35v9.352h9.352v-9.352z"/><path fill="#D3D3D3" d="M74.366 89.923h-9.352v9.352h9.352v-9.352zm14.652 0h-9.353v9.352h9.353v-9.352zm14.664 0h-9.353v9.352h9.353v-9.352z"/><path fill="#FFC278" d="M118.346 89.923h-9.353v9.352h9.353v-9.352zm-58.642 13.48h-9.352v9.353h9.352v-9.353z"/><path fill="#D3D3D3" d="M74.367 103.403h-9.352v9.353h9.352v-9.353zm14.653 0h-9.352v9.353h9.352v-9.353zm14.664 0h-9.353v9.353h9.353v-9.353z"/></svg>