<svg xmlns="http://www.w3.org/2000/svg" width="210" height="175" fill="none"><rect width="209.677" height="174.368" x=".07" y=".049" fill="#6637ED" rx="23"/><g filter="url(#a)" opacity=".19"><rect width="164.537" height="90.501" x="22.097" y="21.711" fill="#fff" rx="15"/></g><circle cx="106.686" cy="66.092" r="18.92" fill="#E9E9E9"/><path fill="#000" d="M111.862 65.318a1 1 0 0 1 0 1.548l-5.664 4.636a1 1 0 0 1-1.633-.774v-9.272a1 1 0 0 1 1.633-.774l5.664 4.636z"/><rect width="161.635" height="4.452" x="24.701" y="123.964" fill="#D9D9D9" rx="2.226"/><rect width="40.065" height="10" x="24.701" y="141.029" fill="#C2ACFF" rx="5"/><rect width="112.327" height="10" x="72.735" y="141.029" fill="#8055FA" rx="5"/><rect width="101.946" height="4.452" x="24.701" y="123.964" fill="#1C1C1C" rx="2.226"/><circle cx="125.751" cy="126.326" r="7.405" fill="#FCC55A" stroke="#1C1C1C" stroke-width="4"/><defs><filter id="a" width="172.537" height="102.5" x="18.097" y="21.711" color-interpolation-filters="sRGB" filterUnits="userSpaceOnUse"><feFlood flood-opacity="0" result="BackgroundImageFix"/><feColorMatrix in="SourceAlpha" result="hardAlpha" values="0 0 0 0 0 0 0 0 0 0 0 0 0 0 0 0 0 0 127 0"/><feOffset dy="8"/><feGaussianBlur stdDeviation="2"/><feComposite in2="hardAlpha" operator="out"/><feColorMatrix values="0 0 0 0 0 0 0 0 0 0 0 0 0 0 0 0 0 0 0.25 0"/><feBlend in2="BackgroundImageFix" result="effect1_dropShadow_322_489"/><feBlend in="SourceGraphic" in2="effect1_dropShadow_322_489" result="shape"/></filter></defs></svg>