<svg xmlns="http://www.w3.org/2000/svg" width="93" height="40" fill="none"><path fill="#717171" d="M87.588.966a4.33 4.33 0 0 1 4.33 4.33V35.1a4.33 4.33 0 0 1-4.33 4.33H5.43A4.33 4.33 0 0 1 1.1 35.1V5.296A4.33 4.33 0 0 1 5.43.966h82.158z"/><path fill="#000" d="M87.588 39.978H5.431A4.882 4.882 0 0 1 .555 35.1V5.296A4.881 4.881 0 0 1 5.431.421h16.206a.545.545 0 0 1 0 1.09H5.431a3.79 3.79 0 0 0-3.786 3.785V35.1a3.79 3.79 0 0 0 3.786 3.786h82.157a3.79 3.79 0 0 0 3.785-3.786V5.296a3.79 3.79 0 0 0-3.785-3.785H32.56a.545.545 0 0 1 0-1.09h55.03a4.883 4.883 0 0 1 4.877 4.875V35.1a4.885 4.885 0 0 1-4.878 4.878z"/><path fill="#000" d="M79.929 15.697H14.634a.545.545 0 0 1 0-1.09h65.295a.545.545 0 0 1 0 1.09zm-.001 8.728H66.276a.545.545 0 0 1 0-1.09h13.652a.545.545 0 0 1 0 1.09zm-22.378 0H14.634a.545.545 0 0 1 0-1.09H57.55a.545.545 0 0 1 0 1.09z"/></svg>