<svg xmlns="http://www.w3.org/2000/svg" width="41" height="22" fill="none"><path stroke="#5C5C5C" stroke-linecap="round" stroke-width="1.65" d="M1.792 7.3 6.13 3a3.3 3.3 0 0 1 4.646 0l2.014 2a3.3 3.3 0 0 0 4.646 0l1.46-1.448a3.3 3.3 0 0 1 4.646 0L25.003 5a3.3 3.3 0 0 0 4.646 0l1.46-1.448a3.3 3.3 0 0 1 4.646 0L39.538 7.3M1.792 13.9 6.13 9.601a3.3 3.3 0 0 1 4.646 0L12.79 11.6a3.3 3.3 0 0 0 4.646 0l1.46-1.448a3.3 3.3 0 0 1 4.646 0l1.46 1.448a3.3 3.3 0 0 0 4.646 0l1.46-1.448a3.3 3.3 0 0 1 4.646 0l3.783 3.749M1.792 20.5l4.338-4.299a3.3 3.3 0 0 1 4.646 0L12.79 18.2a3.3 3.3 0 0 0 4.646 0l1.46-1.448a3.3 3.3 0 0 1 4.646 0l1.46 1.448a3.3 3.3 0 0 0 4.646 0l1.46-1.448a3.3 3.3 0 0 1 4.646 0l3.783 3.749"/></svg>