<svg xmlns="http://www.w3.org/2000/svg" width="246" height="238" fill="none"><g filter="url(#a)"><rect width="236.648" height="228.888" x="4.433" y=".644" fill="#14191B" rx="26"/><rect width="235.148" height="227.388" x="5.183" y="1.394" stroke="#fff" stroke-width="1.5" rx="25.25"/></g><path stroke="#fff" stroke-width="1.5" d="M4.933 50.109h234.423"/><circle cx="33.068" cy="29.817" r="9.671" fill="#6637ED"/><circle cx="57.941" cy="29.817" r="9.671" fill="#FCC55A"/><circle cx="82.814" cy="30.189" r="9.671" fill="#D884FF"/><mask id="b" width="176" height="122" x="32" y="75" maskUnits="userSpaceOnUse" style="mask-type:alpha"><rect width="175.201" height="120.892" x="32.695" y="75.571" fill="#D9D9D9" rx="13"/></mask><g mask="url(#b)"><path fill="#fff" d="M32.695 87.553c0-6.617 5.365-11.982 11.983-11.982h151.236c6.618 0 11.982 5.365 11.982 11.983v96.927c0 6.618-5.364 11.983-11.982 11.983H44.678c-6.618 0-11.983-5.365-11.983-11.983V87.554z"/><path fill="#000" d="M165.184 115.703c-.128 5.48 3.223 11.068 8.397 12.871 2.819.986 5.904.848 8.792 1.597 2.887.749 5.824 2.927 5.844 5.914.01 1.981-1.114 6.475 4.82 9.106 4.898 2.169 3.725 13.927-11.433 18.865-4.642 1.517-1.646-2.297-6.475-3.036-4.771-.729-9.088-3.43-12.379-6.958-3.292-3.529-5.618-7.855-7.432-12.32-2.089-5.145-3.548-10.832-2.257-16.233s6.062-10.279 12.123-9.806z"/><path fill="#000" d="M179.879 164.786c-1.045 0-1.439-.572-1.833-1.351-.404-.808-.858-1.714-2.967-2.04-4.524-.699-8.988-3.203-12.596-7.066-2.927-3.144-5.381-7.205-7.5-12.438-2.661-6.574-3.39-11.798-2.277-16.46 1.262-5.273 6.072-10.595 12.508-10.082a.374.374 0 0 1 .344.374c-.128 5.559 3.302 10.822 8.151 12.517 1.528.532 3.194.73 4.8.927 1.311.157 2.661.325 3.962.66 2.937.769 6.101 3.055 6.121 6.268 0 .257-.02.562-.03.877-.128 2.267-.325 5.697 4.632 7.895 1.853.818 2.918 2.927 2.789 5.49-.226 4.415-4.1 10.752-14.251 14.064-.789.246-1.38.365-1.853.365zm-15.513-48.737c-5.628 0-9.807 4.799-10.94 9.55-1.074 4.504-.365 9.59 2.237 16.006 2.09 5.144 4.494 9.136 7.363 12.211 3.488 3.745 7.805 6.17 12.162 6.84 2.483.384 3.085 1.567 3.518 2.435.424.847.661 1.31 2.789.611 9.807-3.194 13.532-9.216 13.749-13.395.119-2.257-.788-4.08-2.345-4.78-5.421-2.404-5.194-6.445-5.076-8.614.02-.315.029-.591.029-.828-.019-2.818-2.897-4.858-5.568-5.558-1.252-.325-2.582-.483-3.864-.641-1.646-.197-3.351-.404-4.957-.966-5.046-1.754-8.634-7.135-8.654-12.871h-.443z"/><path fill="#000" d="M135.557 103.196c1.597 7.786 3.144 16.164-.049 23.438-1.035 2.365-2.543 4.523-3.391 6.958-1.015 2.897-1.044 6.051-.768 9.107.522 5.775 2.257 11.708 6.317 15.848 4.061 4.139 10.861 5.943 15.878 3.026 4.396-2.563 6.406-8.072 6.13-13.158-.276-5.086-2.444-9.856-4.73-14.399-5.5-10.931-11.916-21.398-19.387-30.82z"/><path fill="#fff" d="M146.813 141.162c.147-4.149-.365-6.475-.533-9.58a18.777 18.777 0 0 1 5.332-1.725c.828-.138 1.765-.187 2.405.316.404.315 2.297-1.36 2.494-.897 1.35 3.164 1.468 7.678 2.818 10.851.109.247 4.84-.197 4.938.049.444 1.035.069 9.62-.256 9.837-17.317 11.511-25.655-4.958-25.655-4.958s3.134-1.922 8.457-3.893z"/><path fill="#000" d="M152.352 154.477c-1.262 0-2.494-.158-3.696-.474-7.077-1.862-10.497-8.485-10.645-8.771a.368.368 0 0 1 .138-.483c.03-.02 3.144-1.912 8.289-3.844.079-2.602-.118-4.494-.296-6.318a62.196 62.196 0 0 1-.246-2.976.367.367 0 0 1 .207-.355 18.895 18.895 0 0 1 5.44-1.754c.828-.138 1.873-.217 2.642.345.187-.04.66-.306.946-.483.68-.394 1.084-.621 1.419-.513.138.05.247.148.306.276.69 1.617 1.064 3.598 1.429 5.5.345 1.803.7 3.666 1.32 5.194.375.029 1.4-.01 2.179-.04 2.473-.098 2.69-.078 2.828.247.316.729.237 4.001.187 5.381-.157 4.623-.433 4.81-.581 4.908-4.159 2.77-8.131 4.16-11.866 4.16zm-13.503-9.275c.759 1.321 4.1 6.535 10.004 8.092 4.524 1.192 9.53 0 14.862-3.529.276-.946.542-7.914.247-9.284-.395-.029-1.4.01-2.169.04-2.464.098-2.68.078-2.818-.247-.69-1.616-1.065-3.597-1.429-5.499-.345-1.794-.7-3.657-1.311-5.165-.197.079-.513.266-.739.394-.74.434-1.321.779-1.715.464-.552-.434-1.42-.355-2.119-.247-1.745.286-3.42.808-5.007 1.577.059.936.138 1.794.236 2.701.188 1.912.385 3.883.286 6.662a.377.377 0 0 1-.236.335c-4.297 1.607-7.185 3.184-8.092 3.706z"/><path fill="#fff" d="M133.763 105.108c.513 3.844 1.282 7.875.296 11.699-.542 2.089-.493 12.694 8.023 15.71 4.474 1.587 9.609 1.262 14.232-1.537 3.134-1.903 6.928-7.796 6.169-13.651 2.592.72 5.155-1.025 5.185-3.361.019-1.34-1.459-3.025-3.026-2.947-1.212.06-1.35.069-2.277.779-.631-2.75-1.015-5.539-.956-8.703-2.947-3.242-7.668-4.898-12.379-5.608-1.557-.236-3.164-.374-4.75-.177-4.554.562-11.039 3.844-10.517 7.796z"/><path fill="#000" d="M147.591 133.848a16.74 16.74 0 0 1-5.637-.986c-8.545-3.036-8.92-13.591-8.25-16.154.858-3.292.365-6.771-.108-10.141-.069-.473-.128-.947-.197-1.41-.148-1.123.197-2.237 1.035-3.331 2.03-2.632 6.554-4.484 9.777-4.889 1.754-.216 3.518-.02 4.849.178 3.912.581 9.274 2.05 12.605 5.726a.396.396 0 0 1 .099.256c-.04 2.671.217 5.253.828 8.062.631-.423.956-.463 2.02-.512.779-.04 1.626.315 2.297.966.699.67 1.123 1.577 1.113 2.355-.019 1.144-.591 2.228-1.577 2.977-.995.749-2.296 1.054-3.548.847.513 5.963-3.321 11.63-6.406 13.493-2.789 1.705-5.835 2.563-8.9 2.563zm-1.764-36.26c-.503 0-1.015.03-1.518.089-3.075.384-7.372 2.128-9.284 4.602-.71.927-1.015 1.863-.887 2.78.059.463.128.936.197 1.409.483 3.44.986 7.008.089 10.437-.375 1.429-.838 12.212 7.786 15.267 4.652 1.646 9.59 1.114 13.916-1.508 2.928-1.774 6.742-7.53 6.003-13.286a.349.349 0 0 1 .128-.325.387.387 0 0 1 .345-.079c1.192.335 2.473.099 3.429-.621.799-.601 1.272-1.478 1.282-2.395.01-.581-.335-1.281-.887-1.813-.533-.513-1.163-.788-1.755-.759-1.163.059-1.232.059-2.069.7a.355.355 0 0 1-.355.049.362.362 0 0 1-.237-.266c-.699-3.036-1.005-5.785-.975-8.644-3.194-3.43-8.309-4.82-12.064-5.38-.917-.129-2.001-.257-3.144-.257z"/><path fill="#000" d="M152.342 120.701c-1.252 0-2.474-.463-3.489-1.331-1.183-1.015-1.952-2.464-2.159-4.08-.433-3.351 1.696-6.406 4.741-6.801 3.045-.394 5.884 2.021 6.318 5.372.433 3.351-1.696 6.406-4.741 6.8a5.03 5.03 0 0 1-.67.04zm-.257-11.512c-.187 0-.374.01-.561.04-2.642.345-4.485 3.016-4.1 5.972.187 1.439.867 2.72 1.912 3.617 1.035.887 2.306 1.282 3.577 1.114 2.642-.345 4.485-3.026 4.1-5.973-.354-2.749-2.503-4.77-4.928-4.77zm-15.118 12.222c-1.252 0-2.474-.463-3.489-1.331-1.183-1.015-1.952-2.464-2.159-4.08-.434-3.361 1.695-6.406 4.741-6.801 1.488-.187 2.957.267 4.159 1.292 1.183 1.015 1.951 2.464 2.158 4.08.434 3.351-1.695 6.406-4.74 6.8-.237.02-.454.04-.67.04zm-.257-11.522c-.187 0-.374.01-.561.04-2.642.345-4.485 3.016-4.11 5.972.187 1.439.867 2.721 1.912 3.618 1.035.887 2.306 1.281 3.577 1.113 2.642-.345 4.485-3.016 4.1-5.972-.187-1.439-.867-2.721-1.912-3.617-.867-.75-1.922-1.154-3.006-1.154zm29.164-28.257c-1.567-5.175-7.037-8.092-12.212-6.525-5.174 1.567-8.091 7.037-6.524 12.211 1.567 5.175 7.037 8.092 12.211 6.525 5.175-1.577 8.092-7.037 6.525-12.211z"/><path fill="#000" d="M162.01 112.194c-2.483-3.853-4.001-6.623-4.819-11.314-9.176 5.43-17.879 6.278-26.66 5.943-.188-1.498.128-4.8.749-6.219 1.518-3.47 3.42-6.476 8.722-8.85 3.716-1.657 8.713-2.77 12.734-2.189 3.992.572 7.431 2.74 10.23 5.332 2.228 2.06 4.11 5.45 4.771 8.792.561 2.868-.138 4.977-1.42 7.894-.719-.384-1.399-.778-2.237-.621-.828.178-1.37.601-2.07 1.232zm-13.305 14.755c-.67 0-1.291-.207-1.784-.621a.374.374 0 0 1-.049-.523.373.373 0 0 1 .522-.049c.611.513 1.538.592 2.464.197 1.045-.433 1.902-1.281 2.415-2.375a.367.367 0 0 1 .493-.177.366.366 0 0 1 .177.492c-.591 1.262-1.587 2.238-2.799 2.74a3.69 3.69 0 0 1-1.439.316zm3.262-12.112c-.059-.483-.522-.818-1.035-.749-.502.069-.867.513-.808.986.059.483.523.818 1.035.749.503-.059.867-.503.808-.986zm-13.709.718c-.059-.483-.523-.818-1.035-.749-.503.069-.867.512-.808.985.059.483.522.818 1.035.75.512-.06.877-.503.808-.986zm5.144 5.649a.577.577 0 0 1-.128-.02l-1.251-.473c-.148-.059-.454-.177-.572-.473-.138-.365.099-.7.217-.858.936-1.251 1.242-2.877.828-4.336a.362.362 0 0 1 .256-.454.361.361 0 0 1 .453.257c.473 1.685.119 3.548-.946 4.977-.02.029-.069.098-.098.148.029.01.069.029.118.049l1.252.473a.373.373 0 0 1 .216.473.376.376 0 0 1-.345.237zm-1.626-7.453a.363.363 0 0 1-.364-.364c-.02-.877.837-1.498 1.685-1.715 1.37-.345 2.927.01 3.962.916a.373.373 0 0 1 .039.523.373.373 0 0 1-.522.039c-.857-.749-2.148-1.045-3.292-.749-.562.148-1.133.532-1.123.986a.403.403 0 0 1-.385.364z"/><path fill="#000" d="M157.053 112.293a.38.38 0 0 1-.375-.365c0-.207.168-.374.365-.374l4.534-.01c.207 0 .364.167.374.365a.371.371 0 0 1-.364.374l-4.534.01z"/><path fill="#000" d="M162.414 115.428a.374.374 0 0 1-.374-.375 8.081 8.081 0 0 0-.641-3.233.37.37 0 0 1 .197-.483.37.37 0 0 1 .483.198 8.835 8.835 0 0 1 .7 3.528c.01.197-.158.365-.365.365z"/><path fill="#FFD42E" d="M195.629 176.583c-4.012-10.96-6.219-21.762-15.681-29.657-4.544-3.784-10.014-6.475-16.321-6.879-.385 6.111-7.481 10.132-11.285 10.585-2.07.246-9.758 1.271-9.758-7.796-2.503.996-10.851 2.021-14.202 12.31-1.37 4.209-3.824 20.303-11.906 29.627-1.912 2.207-3.676-12.458-6.416-11.482-2.691.956-5.795 2.562-6.002 5.411-.158 2.227 1.675 4.159 3.725 5.036 4.396 1.892 6.052 11.048 10.793 11.719 4.927.699 12.802 2.513 18.765-16.125 3.046 3.046 5.007 6.318 8.427 8.161 9.846 5.312 42.607 11.265 47.949 12.211.443.079 1.448-.285 1.626-.699 1.123-2.602 4.06-12.103.286-22.422z"/><path fill="#000" d="M193.854 200.099c-.069 0-.138-.01-.197-.02-6.307-1.113-38.25-6.968-48.057-12.251-2.375-1.281-4.06-3.222-5.844-5.282a64.145 64.145 0 0 0-2.247-2.504c-2.533 7.698-5.618 12.527-9.413 14.745-3.341 1.951-6.515 1.488-9.067 1.113l-.503-.069c-2.71-.384-4.445-3.301-6.12-6.13-1.39-2.355-2.829-4.78-4.771-5.618-2.089-.897-4.119-2.917-3.942-5.401.168-2.424 2.218-4.307 6.249-5.736.305-.108.621-.089.926.059 1.291.641 2.218 3.617 3.203 6.771.562 1.814 1.518 4.849 2.021 4.849 0 0 .039-.01.118-.098 6.426-7.422 9.304-19.337 10.851-25.734.395-1.636.71-2.927.976-3.765 2.937-9.038 9.797-11.107 13.089-12.103.532-.158.995-.295 1.32-.433a.359.359 0 0 1 .345.039.377.377 0 0 1 .158.305c0 2.731.719 4.751 2.129 6.003 2.277 2.02 5.805 1.586 7.135 1.429l.069-.01c3.627-.434 10.586-4.337 10.96-10.24a.38.38 0 0 1 .128-.257.327.327 0 0 1 .266-.088c5.884.374 11.453 2.72 16.539 6.968 7.884 6.574 10.752 15.089 13.798 24.097.631 1.873 1.281 3.805 1.981 5.717 3.43 9.373 1.429 18.687-.286 22.708-.217.552-1.202.936-1.814.936zm-56.513-21.121c.099 0 .187.039.266.108.986.986 1.863 2.001 2.71 2.977 1.735 2.01 3.381 3.903 5.638 5.115 9.708 5.233 41.552 11.058 47.84 12.182.345.059 1.134-.276 1.222-.483.188-.434 4.465-10.694.276-22.166a250.1 250.1 0 0 1-1.99-5.736c-3.006-8.91-5.855-17.327-13.572-23.772-4.859-4.051-10.152-6.328-15.75-6.771-.66 6.1-7.815 10.112-11.58 10.555l-.069.01c-1.419.168-5.194.621-7.717-1.616-1.489-1.321-2.287-3.351-2.376-6.032-.266.089-.561.177-.887.276-3.42 1.035-9.777 2.957-12.605 11.62-.266.818-.572 2.099-.966 3.716-1.557 6.465-4.465 18.489-11.009 26.049-.306.355-.621.384-.828.335-.917-.187-1.547-2.06-2.572-5.352-.809-2.592-1.824-5.825-2.829-6.327a.424.424 0 0 0-.345-.03c-3.726 1.321-5.608 2.986-5.756 5.096-.148 2.119 1.705 3.902 3.499 4.671 2.158.927 3.656 3.46 5.115 5.914 1.656 2.799 3.223 5.44 5.588 5.775l.503.069c4.859.71 12.192 1.774 17.859-15.937a.371.371 0 0 1 .266-.246h.069z"/><path fill="#fff" d="M183.871 187.149c-8.989-.503-18.037-1.124-27.084-1.745-.808-.138-4.84-.71-5.825-.857-.838-.129-1.646-.434-2.415-.789-2.69-1.242-8.466-3.676-9.757-2.957-2.967.878-5.657 3.016-7.767 5.727-1.182 1.527-2.148 4.041-1.655 4.474.315.276.778.394 1.123.099a14.173 14.173 0 0 1 6.909-6.84 19.953 19.953 0 0 0-3.873 2.858c-1.183 1.114-2.277 2.464-2.543 4.07-.02.129-.03.267.03.375.157.266.571.108.818-.079.483-.374 6.662-5.401 7.825-5.263-1.537.582-7.017 5.027-7.037 5.5-.01.226.03.463.178.64.197.237.542.316.847.266.306-.049.582-.207.848-.364 1.764-1.075 3.39-2.425 5.302-3.213.956-.395 2.119-.631 2.967-.04-1.705.651-3.302 1.587-4.632 2.819a2.543 2.543 0 0 0-.533.68c-.207.375-.443.917-.157 1.232.473.513.877.256 1.291.01a27.737 27.737 0 0 1 5.066-2.671c.542-.217 1.192-.404 1.685-.089.424.276 2.494 1.558 6.732 1.774 1.448.079 2.848.454 4.652.947 23.841 6.573 30.967 9.195 36.742 6.711 1.134-.483 1.508-1.084 1.134-3.025-1.035-5.185-2.011-8.131-10.871-10.25z"/><path fill="#000" d="M188.739 201.725c-4.573 0-11.087-1.824-23.328-5.244-2.583-.719-5.5-1.537-8.674-2.414-1.685-.463-3.134-.868-4.573-.937-3.981-.207-6.16-1.35-6.919-1.833-.354-.226-.906-.049-1.35.119a26.834 26.834 0 0 0-4.997 2.641l-.049.029c-.394.227-1.045.612-1.715-.098-.345-.365-.305-.927.099-1.666.167-.295.364-.552.611-.768a14.275 14.275 0 0 1 3.873-2.524c-.611-.059-1.281.138-1.813.355-1.242.513-2.386 1.291-3.499 2.05-.562.385-1.153.779-1.745 1.144-.295.177-.611.354-.975.413-.474.079-.927-.078-1.193-.404-.187-.226-.276-.532-.256-.887 0-.019 0-.049.01-.078-.099.078-.158.128-.198.157-.108.089-.502.365-.916.286a.683.683 0 0 1-.444-.306.707.707 0 0 1-.088-.266c-.444.266-1.025.197-1.479-.207-.818-.719.601-3.676 1.617-4.977 2.306-2.966 5.036-4.987 7.914-5.844 1.577-.779 7.54 1.813 10.043 2.966.621.286 1.449.631 2.316.759.266.04.759.109 1.341.197 1.626.237 3.853.562 4.474.661 8.841.611 17.977 1.232 27.064 1.744.02 0 .04 0 .069.01 9.078 2.168 10.103 5.253 11.128 10.536.384 1.971.039 2.829-1.351 3.43-1.518.631-3.085.956-4.997.956zm-43.907-11.285c.275 0 .561.059.808.226.699.454 2.749 1.518 6.554 1.715 1.518.079 3.006.493 4.731.966 3.183.877 6.1 1.695 8.683 2.415 17.159 4.8 22.934 6.416 27.823 4.307.916-.394 1.281-.759.916-2.612-.995-5.115-1.912-7.885-10.536-9.944-9.087-.503-18.223-1.134-27.064-1.745h-.039c-.592-.098-2.927-.434-4.475-.66-.591-.089-1.074-.158-1.34-.197-.966-.138-1.853-.513-2.523-.818-4.751-2.198-8.624-3.42-9.422-2.977-.02.01-.05.02-.079.03-2.701.798-5.391 2.779-7.57 5.598-1.182 1.528-1.862 3.617-1.695 3.991.158.138.394.217.572.119 1.439-3.026 4.001-5.549 7.047-6.939a.372.372 0 0 1 .335.661 19.85 19.85 0 0 0-3.804 2.799c-1.449 1.36-2.228 2.592-2.435 3.863-.01.03-.01.059-.01.079a.761.761 0 0 0 .266-.138c.04-.03.109-.089.207-.168 6.663-5.312 7.55-5.213 7.885-5.174.168.02.306.148.325.325a.38.38 0 0 1-.236.395c-1.39.522-6.338 4.514-6.801 5.233 0 .138.03.256.099.335.088.118.295.168.493.138.236-.039.473-.177.709-.315a42.255 42.255 0 0 0 1.715-1.124c1.143-.778 2.326-1.577 3.627-2.119 1.36-.562 2.503-.562 3.321 0a.374.374 0 0 1 .158.345.355.355 0 0 1-.236.296c-1.735.66-3.253 1.577-4.514 2.74a2.503 2.503 0 0 0-.464.591c-.266.473-.276.729-.207.798.237.257.355.227.809-.039l.029-.02c1.686-1.113 3.361-2 5.115-2.7.385-.128.809-.276 1.223-.276z"/><path fill="#000" d="M124.341 198.767c7.461.158 14.932.316 22.393.483l.029-3.804-24.925-.611 2.503 3.932z"/><path fill="#fff" d="m60.722 164.035 48.668.266 16.775 34.466-48.215-.128-17.228-34.604z"/><path fill="#000" d="m126.165 199.132-48.215-.118a.358.358 0 0 1-.326-.207l-17.237-34.604a.37.37 0 0 1 .02-.364.376.376 0 0 1 .315-.178l48.678.266c.138 0 .266.079.335.207l16.774 34.456a.35.35 0 0 1-.019.355.393.393 0 0 1-.325.187zm-47.989-.857 47.397.118-16.41-33.717-47.85-.266 16.863 33.865z"/><path fill="#fff" d="M91.502 178.08c-1.38-.138-2.888.236-3.45 1.498-.562 1.271-.128 2.858.897 3.794 1.025.937 2.543 1.242 3.893.937.73-.168 1.459-.523 1.882-1.144.296-.433.414-.956.424-1.478 0-1.705-.778-3.331-3.646-3.607z"/><path fill="#000" d="M91.807 184.792c-1.173 0-2.296-.404-3.105-1.143-1.172-1.074-1.586-2.848-.985-4.218.562-1.262 1.99-1.903 3.824-1.725 3.302.325 3.982 2.346 3.962 3.982 0 .64-.168 1.222-.483 1.685-.542.798-1.439 1.143-2.1 1.291a4.814 4.814 0 0 1-1.113.128zm-.828-6.367c-.798 0-2.1.188-2.592 1.311-.483 1.084-.148 2.504.808 3.371.897.818 2.257 1.143 3.568.847.75-.167 1.33-.522 1.656-.985.286-.424.355-.927.355-1.272.01-1.961-1.065-3.025-3.302-3.242a3.152 3.152 0 0 0-.493-.03zm87.52 8.783a.38.38 0 0 1-.355-.256c-3.39-10.26-5.302-16.755-5.302-30.829a.374.374 0 1 1 .749 0c0 13.955 1.902 20.401 5.273 30.592a.357.357 0 0 1-.237.463c-.049.03-.088.03-.128.03zm-41.158-7.491a.379.379 0 0 1-.305-.157c-4.386-6.308-3.194-10.921-2.05-15.375.571-2.218 1.163-4.524 1.064-7.028a.366.366 0 0 1 .355-.384.372.372 0 0 1 .384.355c.099 2.612-.502 4.967-1.094 7.244-1.153 4.504-2.247 8.752 1.942 14.774a.365.365 0 0 1-.089.512.36.36 0 0 1-.207.059zm14.232-15.484c-4.425 0-8.851-.404-13.138-1.478-.069-.02-.108-.079-.089-.148.02-.069.089-.108.148-.089 10.891 2.73 22.649 1.084 33.017-.364a.122.122 0 0 1 .138.108c.01.069-.039.128-.108.138-6.308.877-13.128 1.833-19.968 1.833z"/><path fill="#000" d="M155.555 172.73a81.27 81.27 0 0 1-19.278-2.307c-.069-.019-.109-.079-.089-.148.02-.069.079-.108.148-.088 11.531 2.818 23.772 3.055 35.412.67a.13.13 0 0 1 .148.098.13.13 0 0 1-.099.148 82.258 82.258 0 0 1-16.242 1.627zm40.813 17.248a.126.126 0 0 1-.099-.04c-4.07-4.79-10.713-7.204-16.912-6.15-.069.01-.128-.029-.138-.098-.01-.069.029-.128.098-.138 6.288-1.074 13.01 1.37 17.14 6.229a.136.136 0 0 1-.01.177c-.02.01-.05.02-.079.02zm-.739-4.435c-.02 0-.03 0-.05-.01-.66-.266-1.202-.749-1.724-1.212-.188-.167-.365-.325-.552-.483a8.323 8.323 0 0 0-4.021-1.784c-.069-.01-.119-.069-.109-.138.01-.069.069-.118.138-.108a8.522 8.522 0 0 1 4.14 1.833c.187.158.374.325.561.493.503.453 1.025.916 1.646 1.173.059.029.099.098.069.157a.095.095 0 0 1-.098.079z"/><g clip-path="url(#c)"><path fill="#84A6FF" d="m101.732 96.977-50.106 13.426a2.417 2.417 0 0 0-1.588 3.298l7.925 18.039a2.41 2.41 0 0 0 2.836 1.359l2.831-.759 2.922 10.515 4.37-12.469 34.214-9.167a2.418 2.418 0 0 0 1.776-2.595l-2.156-19.585a2.407 2.407 0 0 0-3.024-2.062z"/><path fill="#000" d="M66.64 143.185c-.035.009-.064.007-.102.008a.357.357 0 0 1-.326-.256l-2.826-10.188-2.501.67a2.748 2.748 0 0 1-3.241-1.555l-7.921-18.021a2.759 2.759 0 0 1 .042-2.302 2.747 2.747 0 0 1 1.77-1.476l50.106-13.426a2.758 2.758 0 0 1 3.456 2.356l2.156 19.586a2.748 2.748 0 0 1-2.029 2.967l-34.036 9.12-4.31 12.3a.355.355 0 0 1-.237.217zm-14.926-32.452a2.062 2.062 0 0 0-1.327 1.1 2.047 2.047 0 0 0-.025 1.724l7.925 18.039a2.056 2.056 0 0 0 2.43 1.162l2.831-.758a.354.354 0 0 1 .427.238l2.627 9.449 4.009-11.427a.355.355 0 0 1 .238-.217l34.214-9.167a2.056 2.056 0 0 0 1.523-2.221L104.43 99.07a2.08 2.08 0 0 0-.883-1.481 2.063 2.063 0 0 0-1.7-.29l-50.133 13.434z"/><path fill="#000" d="m90.103 109.702-22.774 6.103a.35.35 0 0 1-.181-.677l22.774-6.102a.35.35 0 0 1 .429.248.355.355 0 0 1-.248.428zm-1.853 5.869-15.98 4.283a.35.35 0 0 1-.182-.677l15.98-4.282a.35.35 0 0 1 .43.248.355.355 0 0 1-.248.428z"/></g></g><defs><clipPath id="c"><path fill="#fff" d="m48.873 110.778 55.44-14.855 9.292 34.678-55.44 14.855z"/></clipPath><filter id="a" width="244.648" height="236.888" x=".433" y=".644" color-interpolation-filters="sRGB" filterUnits="userSpaceOnUse"><feFlood flood-opacity="0" result="BackgroundImageFix"/><feColorMatrix in="SourceAlpha" result="hardAlpha" values="0 0 0 0 0 0 0 0 0 0 0 0 0 0 0 0 0 0 127 0"/><feOffset dy="4"/><feGaussianBlur stdDeviation="2"/><feComposite in2="hardAlpha" operator="out"/><feColorMatrix values="0 0 0 0 0 0 0 0 0 0 0 0 0 0 0 0 0 0 0.25 0"/><feBlend in2="BackgroundImageFix" result="effect1_dropShadow_595_3619"/><feBlend in="SourceGraphic" in2="effect1_dropShadow_595_3619" result="shape"/></filter></defs></svg>