<svg xmlns="http://www.w3.org/2000/svg" width="179" height="259" fill="none"><path fill="#000" d="m138.136 257.774-6.238.455-115.678-.455c-5.253 0-8.976-4.245-8.312-9.483L37.927 11.139C38.59 5.9 43.385 1.656 48.64 1.656L164.435.304c13.291 0 15.094 5.597 14.431 10.835L148.847 248.29c-.661 5.235-5.456 9.483-10.711 9.483z"/><path fill="#fff" d="M130.8 257.774H8.884c-5.253 0-8.976-4.259-8.312-9.511L30.59 10.354C31.254 5.102 36.049.843 41.304.843h121.917c5.252 0 8.975 4.259 8.312 9.511l-30.019 237.909c-.664 5.252-5.459 9.511-10.714 9.511z"/><path fill="#D884FF" d="m7.52 248.588 28.664-227.16c.153-1.214 1.262-2.197 2.473-2.197h122.571c1.214 0 2.072.983 1.919 2.196l-28.664 227.161c-.152 1.214-1.262 2.196-2.472 2.196H9.439c-1.213 0-2.071-.982-1.919-2.196z"/><path fill="#000" d="M132.011 251.41H9.44c-.765 0-1.454-.302-1.936-.849-.486-.554-.7-1.279-.604-2.05l28.664-227.16c.195-1.538 1.552-2.744 3.093-2.744h122.571c.765 0 1.454.302 1.936.85.486.553.7 1.278.604 2.049l-28.664 227.161c-.195 1.538-1.552 2.743-3.093 2.743zM38.657 19.855c-.892 0-1.741.756-1.854 1.648L8.139 248.664c-.051.409.056.787.302 1.067.242.274.595.426.999.426h122.57c.892 0 1.741-.756 1.854-1.648l28.664-227.161c.051-.41-.056-.787-.302-1.067-.242-.274-.595-.426-.999-.426H38.658zm62.079-6.292c-1.13 0-2.14-.443-2.848-1.244-.714-.81-1.03-1.883-.887-3.02.286-2.267 2.366-4.11 4.632-4.11 1.129 0 2.139.444 2.848 1.245.714.81 1.03 1.883.886 3.02-.285 2.266-2.362 4.11-4.631 4.11zm.9-7.126c-1.662 0-3.184 1.355-3.393 3.017-.098.776.11 1.502.585 2.038.468.53 1.145.821 1.91.821 1.663 0 3.184-1.355 3.393-3.017.099-.776-.11-1.501-.584-2.038-.469-.528-1.146-.821-1.911-.821z"/><path fill="#000" d="M130.8 258.398H61.14a.624.624 0 1 1 0-1.247h69.66c4.942 0 9.469-4.022 10.093-8.967l30.019-237.908c.299-2.374-.345-4.598-1.809-6.263-1.448-1.643-3.54-2.549-5.882-2.549H41.304c-4.942 0-9.469 4.022-10.092 8.967l-6.043 47.88a.625.625 0 0 1-1.24-.156l6.044-47.88C30.673 4.73 35.756.218 41.304.218h121.917c2.709 0 5.131 1.055 6.819 2.972 1.707 1.936 2.458 4.51 2.111 7.245l-30.019 237.908c-.697 5.543-5.783 10.056-11.332 10.056zM3.499 225.712a.626.626 0 0 1-.62-.702l13.004-103.066a.628.628 0 0 1 .697-.542.626.626 0 0 1 .542.697L4.117 225.165a.623.623 0 0 1-.618.547z"/><path fill="#fff" d="M86.361 181.256c31.028 0 56.18-25.152 56.18-56.18 0-31.027-25.152-56.18-56.18-56.18-31.027 0-56.18 25.153-56.18 56.18 0 31.028 25.153 56.18 56.18 56.18z"/><path fill="#000" d="M86.361 181.879c-31.323 0-56.806-25.483-56.806-56.806 0-31.323 25.483-56.806 56.806-56.806 31.323 0 56.807 25.483 56.807 56.806 0 31.326-25.484 56.806-56.807 56.806zm0-112.36c-30.634 0-55.556 24.922-55.556 55.557 0 30.634 24.922 55.556 55.556 55.556 30.635 0 55.556-24.922 55.556-55.556 0-30.634-24.921-55.556-55.556-55.556z"/><path fill="#000" d="m53.67 162.668 56.733 3.195s.028 4.981.155 10.657c-8.075 3.938-17.087 4.736-26.675 4.736-11.549 0-22.257-5.602-31.466-11.174l1.253-7.414z"/><path fill="#fff" d="M5.514 52.916c.135-1.154-.523-2.43-.754-3.59-.505-2.517-.934-5.072-.86-7.637.064-2.27.163-4.319 1.094-6.373.641-1.409 1.654-3.17 3.602-2.986 1.41.135 2.726 1.03 3.505 2.19 1.075 1.594 1.324 3.61 1.27 5.532-.05 1.73-.68 3.838-.31 5.537.392 1.801 1.436 1.646 2.34.246 2.277-3.523 6.07-4.191 4.733-2.944-1.335 1.248-3.74 6.232-4.63 7.604-.32.496-1.317 1.103-2.455 1.673-.008 3.26.398 8.27 2.713 13.731 2.757 6.506 7.087 10.98 10.66 13.85-2.927 5.122-9.303 13.49-20.231 14.888a47.57 47.57 0 0 1-3.61-9.661A47.968 47.968 0 0 1 1.548 66.78a47.865 47.865 0 0 1 2.123-9.006c.505-1.485 1.216-2.893 1.73-4.367.059-.16.096-.324.113-.49z"/><path fill="#000" d="M6.194 95.261a.623.623 0 0 1-.56-.344 48.058 48.058 0 0 1-3.654-9.788A48.904 48.904 0 0 1 .936 66.696a48.684 48.684 0 0 1 2.15-9.125c.268-.785.59-1.547.903-2.286.288-.68.585-1.386.83-2.083.04-.11.065-.231.08-.356.073-.63-.164-1.385-.393-2.116a12.097 12.097 0 0 1-.353-1.28c-.576-2.872-.943-5.294-.872-7.778.07-2.466.2-4.518 1.152-6.612.445-.983 1.628-3.59 4.227-3.348 1.522.144 3.04 1.09 3.966 2.464.996 1.482 1.448 3.412 1.375 5.899-.02.655-.116 1.36-.212 2.04-.161 1.163-.328 2.366-.116 3.345.141.655.344.824.381.83.07.02.41-.15.827-.793 1.792-2.772 4.442-3.923 5.422-3.8.347.046.61.25.703.545.113.356-.034.729-.44 1.107-.836.779-2.247 3.373-3.275 5.264-.513.945-.96 1.764-1.256 2.22-.209.323-.68.842-2.354 1.717.034 4.609.93 9.015 2.662 13.104 2.213 5.225 5.738 9.803 10.477 13.607.24.192.305.53.152.796-2.89 5.058-9.421 13.76-20.694 15.196a.509.509 0 0 1-.084.008zm-.06-42.27a3.008 3.008 0 0 1-.14.62c-.258.737-.562 1.46-.859 2.16-.305.719-.618 1.461-.869 2.204a47.565 47.565 0 0 0-2.094 8.89A47.626 47.626 0 0 0 3.19 84.824a46.842 46.842 0 0 0 3.361 9.136c10.141-1.49 16.206-9.223 19.063-14.058-4.691-3.867-8.2-8.49-10.43-13.754-1.845-4.358-2.774-9.06-2.76-13.976a.62.62 0 0 1 .345-.556c1.696-.853 2.114-1.304 2.213-1.457.27-.417.705-1.213 1.208-2.139.86-1.58 1.88-3.455 2.752-4.666-.892.475-2.08 1.38-3.015 2.826-.87 1.343-1.688 1.417-2.1 1.343-.468-.085-1.09-.466-1.377-1.795-.26-1.197-.08-2.512.099-3.782.093-.677.183-1.318.2-1.905.065-2.218-.316-3.909-1.163-5.165-.722-1.072-1.89-1.806-3.048-1.916-1.2-.119-2.086.669-2.972 2.622-.858 1.885-.97 3.73-1.041 6.133-.068 2.365.29 4.707.846 7.496.074.361.192.745.32 1.152.27.85.547 1.733.442 2.627z"/><path fill="#fff" d="M26.425 79.749c2.3 1.846 4.287 3.029 5.342 3.655 17.398 10.33 27.984-1.516 56.485-.756 10.42.279 17.567-1.203 36.149 6.864 0 0 33.861 10.855 33.861 45.531 0 9.723-6.407 17.959-13.957 20.592-6.749-8.436-8.911-13.257-14.186-15.329.04-.398 3.703-2.904 3.661-3.316-.914-8.809-3.889-11.326-7.304-12.949-1.564-.742-3.401.158-3.582 1.88-.793 7.566.316 13.578-1.374 31.563-.98 10.437-2.027 11.975-3.034 12.999-6.627 6.746-17.928-2.283-44.338-2.686-12.534-.192-20.803 1.679-23.152-2.656-1.693-3.125 1.127-6.822 3.187-12.255 2.546-6.712 4.307-17.073-.116-32.438-17.58 1.947-34.84-5.947-44.738-20.482a47.45 47.45 0 0 1-3.135-5.329c10.928-1.397 17.304-9.765 20.23-14.888z"/><path fill="#000" d="M111.864 173.586c-2.918 0-6.398-.751-10.601-1.66-6.503-1.406-15.407-3.33-27.126-3.508-3.336-.051-6.387.045-9.077.13-7.651.242-12.709.4-14.614-3.114-1.389-2.562-.135-5.317 1.454-8.803.567-1.247 1.154-2.537 1.699-3.968 3.38-8.921 3.387-19.531.011-31.54-17.705 1.772-34.831-6.17-44.797-20.807a47.84 47.84 0 0 1-3.178-5.4.63.63 0 0 1 .006-.572.629.629 0 0 1 .47-.328c10.737-1.368 16.994-9.72 19.769-14.577a.625.625 0 0 1 .934-.178c2.272 1.823 4.222 2.98 5.27 3.604 10.073 5.984 17.744 4.39 28.365 2.185 7.541-1.567 16.085-3.342 27.814-3.026 1.615.043 3.164.045 4.666.045 8.179.003 15.904.009 31.715 6.87.028.006 8.622 2.811 17.081 9.856 7.827 6.517 17.155 18.094 17.155 36.248 0 9.37-6.046 18.278-14.375 21.182a.624.624 0 0 1-.694-.2c-1.84-2.301-3.336-4.327-4.654-6.111-3.491-4.727-5.597-7.584-9.272-9.026a.623.623 0 0 1-.392-.641c.039-.414.358-.702 1.956-1.972.573-.455 1.405-1.118 1.685-1.417-.946-8.713-3.943-10.833-6.932-12.252a1.982 1.982 0 0 0-1.818.039 1.693 1.693 0 0 0-.875 1.341c-.318 3.048-.327 5.817-.335 9.319-.015 5.146-.031 11.547-1.036 22.235-.971 10.341-2.03 12.179-3.209 13.381-1.925 1.956-4.231 2.665-7.065 2.665zm-39.626-6.433c.63 0 1.267.006 1.919.014 11.843.181 20.818 2.12 27.372 3.537 8.156 1.764 13.081 2.825 16.511-.663.973-.991 1.925-2.701 2.856-12.622.999-10.632 1.016-17.002 1.03-22.122.009-3.539.017-6.334.344-9.447a2.96 2.96 0 0 1 1.508-2.3 3.239 3.239 0 0 1 2.963-.079c3.954 1.88 6.768 4.886 7.657 13.449.054.513-.307.847-2.17 2.328-.313.249-.717.57-1.039.839 3.506 1.67 5.73 4.682 8.975 9.079 1.245 1.685 2.645 3.585 4.344 5.724 6.59-2.506 13.124-10.022 13.124-19.85 0-33.826-33.092-44.828-33.428-44.935-15.631-6.782-23.231-6.785-31.278-6.788-1.51 0-3.068-.003-4.7-.045-11.582-.31-20.052 1.447-27.529 3-10.485 2.176-18.766 3.895-29.257-2.334a45.013 45.013 0 0 1-4.846-3.257c-2.972 4.978-9.159 12.751-19.452 14.442a47.054 47.054 0 0 0 2.695 4.485c9.805 14.4 26.726 22.144 44.154 20.214a.62.62 0 0 1 .669.448c3.593 12.481 3.627 23.528.099 32.831-.56 1.47-1.18 2.839-1.73 4.044-1.502 3.294-2.586 5.676-1.494 7.691 1.539 2.837 6.286 2.687 13.478 2.461 2.19-.067 4.606-.144 7.225-.144z"/><path fill="#000" d="M99.124 138.444a.623.623 0 0 1-.33-1.155c6.917-4.256 9.39-10.465 8.052-12.873-.83-1.498-3.217-1.45-6.384.128a.625.625 0 0 1-.559-1.118c5.529-2.755 7.46-.649 8.035.384 1.824 3.285-1.213 10.067-8.492 14.543a.584.584 0 0 1-.322.091z"/><path fill="#000" d="m99.054 140.82-10.175-.782a1.344 1.344 0 0 1-1.242-1.374l.46-18.642c.02-.771.68-1.369 1.448-1.31l12.012.923a1.348 1.348 0 0 1 1.234 1.507l-2.298 18.501a1.348 1.348 0 0 1-1.44 1.177z"/><path fill="#fff" d="M91.303 129.95c.062-.139.138-.269.231-.393 1.824-2.404 5.806.088 7.886.751 1.634.522 3.266 1.044 4.9 1.564l6.226 7.358c3.373.891 13.627 4.346 21.129-.542 2.41-1.572 5.636-.906 7.349 1.405 2.56 3.458 4.965 7.951 6.514 14.984-12.046 3.613-29.26-.81-36.996-7.699-3.522.135-6.285-3.277-8.402-5.639-1.191-1.332-2.309-2.916-3.822-3.898-1.385-.898-3.065-1.448-4.109-2.797-.669-.866-.974-1.962-1.104-3.048-.079-.689-.084-1.431.198-2.046z"/><path fill="#000" d="M135.889 157.01c-10.567 0-21.769-3.957-27.575-9.006-3.457-.017-6.19-3.097-8.196-5.36l-.438-.491c-.293-.328-.581-.669-.872-1.013-.864-1.025-1.755-2.083-2.825-2.775-.404-.262-.836-.491-1.29-.737-1.067-.572-2.17-1.162-2.975-2.201-.657-.852-1.06-1.95-1.23-3.359-.119-.993-.043-1.75.245-2.379a2.6 2.6 0 0 1 .302-.508c1.745-2.297 4.866-.985 7.144-.028.53.223 1.03.434 1.43.561l4.9 1.564a.63.63 0 0 1 .288.192l6.099 7.208.726.201c3.898 1.089 13.031 3.641 19.711-.714 2.662-1.733 6.261-1.053 8.194 1.558 3.172 4.281 5.278 9.119 6.624 15.221a.628.628 0 0 1-.432.734c-3.073.92-6.418 1.332-9.83 1.332zm-27.344-10.257c.153 0 .302.057.415.158 7.231 6.444 23.593 11.115 35.842 7.731-1.31-5.656-3.314-10.172-6.277-14.174-1.541-2.077-4.397-2.628-6.509-1.253-7.154 4.662-16.666 2.004-20.73.869-.339-.093-.638-.178-.9-.248a.61.61 0 0 1-.316-.201l-6.111-7.222-4.728-1.51c-.451-.144-.979-.364-1.535-.599-2.467-1.035-4.595-1.781-5.664-.369a1.496 1.496 0 0 0-.161.271c-.187.406-.232.968-.141 1.713.14 1.177.46 2.074.979 2.743.64.83 1.58 1.332 2.577 1.866.457.245.931.499 1.377.79 1.225.793 2.179 1.925 3.102 3.02.282.336.562.666.847.985l.44.494c1.998 2.252 4.499 5.049 7.471 4.939.006-.003.014-.003.022-.003zM93.242 66.59c2.071 1.045 3.632 1.195 4.755 1.13 4.065-.234 6.673-3.511 7.195-4.166 2.695-3.387 3.993-8.95 1.71-12.215-1.645-2.351-3.714-1.465-5.608-4.096-2.15-2.986.054-5.422-1.93-8.035-2.284-3.009-7.316-2.78-8.222-2.738-3.105.141-3.474 1.682-6.41 1.603-2.997-.081-3.392-1.586-6.144-1.603-2.185-.011-5.371.918-6.796 3.444-1.79 3.172.039 7.35 2.167 9.553 2.551 2.648 4.35 1.228 7.925 3.384 6.196 3.737 4.714 10.392 11.358 13.74z"/><path fill="#fff" d="m81.705 80.69 1.676-10.434c-.37-.042-3.457-.578-3.81-.756-2.859-1.425-2.066-8.603-2.066-8.603l-1.589-1.9 4.742-10.614c5.038 4.197 6.833.076 11.82 2.142 4.984 2.066 2.28 7.615 2.28 7.615s4.076-1.795 3.204 2.145c-.658 2.975-2.825 3.16-4.254 3.042l2.656 17.892s5.205 1.479 8.281 2.337c.46.127.452.781-.014.897-4.781 1.194-16.754 4.595-30.27-.398-.565-.209-.534-1.022.042-1.194l7.302-2.17z"/><path fill="#000" d="M89.365 87.312c-4.593 0-9.794-.663-15.219-2.667a1.233 1.233 0 0 1-.816-1.213 1.24 1.24 0 0 1 .898-1.166l6.923-2.063 1.516-9.43c-1.044-.175-2.997-.528-3.373-.714-2.927-1.456-2.571-7.465-2.435-8.964l-1.42-1.699a.622.622 0 0 1-.09-.655l4.741-10.615a.622.622 0 0 1 .971-.223c2.645 2.205 4.259 1.934 6.13 1.62 1.507-.25 3.212-.536 5.53.424 1.52.63 2.548 1.623 3.05 2.952.587 1.544.32 3.195.006 4.284.722-.132 1.603-.135 2.23.379.674.553.866 1.515.567 2.859-.358 1.623-1.374 3.48-4.135 3.553l2.49 16.754c1.261.358 5.32 1.51 7.888 2.227.483.135.802.561.796 1.064-.006.502-.339.92-.827 1.041l-.643.161c-2.964.75-8.256 2.091-14.778 2.091zM76.647 58.897l1.338 1.6c.11.13.16.299.14.468-.205 1.877-.299 6.969 1.722 7.976.359.142 3.195.65 3.605.695a.623.623 0 0 1 .544.72L82.32 80.79a.626.626 0 0 1-.438.5l-7.298 2.173c12.754 4.722 24.312 1.798 29.248.55l.062-.017c-3.107-.87-7.702-2.176-7.702-2.176a.618.618 0 0 1-.446-.508l-2.659-17.891a.617.617 0 0 1 .164-.52.634.634 0 0 1 .508-.194c2.052.175 3.161-.615 3.59-2.554.183-.825.133-1.4-.141-1.623-.466-.384-1.685-.043-2.201.183a.627.627 0 0 1-.7-.138.629.629 0 0 1-.113-.706c.01-.025 1.18-2.486.403-4.53-.378-.99-1.171-1.744-2.36-2.235-1.983-.821-3.375-.59-4.845-.344-1.852.307-3.76.626-6.492-1.39l-4.253 9.527z"/><path fill="#000" d="M84.547 70.963a9.29 9.29 0 0 1-1.25-.088.623.623 0 1 1 .169-1.236c4.417.604 6.435-2.738 6.455-2.772a.626.626 0 0 1 1.078.633c-.088.152-2.086 3.463-6.452 3.463zM64.758 220.9c-4.665 0-8.461-3.796-8.461-8.462 0-4.665 3.796-8.461 8.461-8.461 4.666 0 8.462 3.796 8.462 8.461 0 4.666-3.796 8.462-8.462 8.462zm0-15.676c-3.977 0-7.211 3.235-7.211 7.211 0 3.977 3.234 7.212 7.211 7.212 3.977 0 7.211-3.235 7.211-7.212 0-3.974-3.234-7.211-7.21-7.211zm21.185 15.963c-4.665 0-8.461-3.796-8.461-8.462 0-4.665 3.796-8.461 8.461-8.461 4.666 0 8.462 3.796 8.462 8.461 0 4.666-3.796 8.462-8.462 8.462zm0-15.673a7.218 7.218 0 0 0-7.211 7.211 7.218 7.218 0 0 0 7.211 7.211 7.218 7.218 0 0 0 7.212-7.211c.002-3.974-3.235-7.211-7.212-7.211zm21.674 15.673c-4.666 0-8.462-3.796-8.462-8.462 0-4.665 3.796-8.461 8.462-8.461 4.665 0 8.461 3.796 8.461 8.461 0 4.666-3.796 8.462-8.461 8.462zm0-15.673c-3.977 0-7.212 3.234-7.212 7.211 0 3.977 3.235 7.211 7.212 7.211 3.976 0 7.211-3.234 7.211-7.211 0-3.974-3.235-7.211-7.211-7.211z"/></svg>