<svg xmlns="http://www.w3.org/2000/svg" width="69" height="46" fill="none"><path fill="#000" d="M61.237 27.721a27.56 27.56 0 0 0-11.5-16.208H66.7a2.3 2.3 0 1 0 0-4.598H43.412A9.196 9.196 0 0 0 34.5 0a9.202 9.202 0 0 0-8.913 6.915H2.3A2.3 2.3 0 0 0 .674 10.84a2.3 2.3 0 0 0 1.626.673h16.962a27.56 27.56 0 0 0-11.5 16.208 9.201 9.201 0 0 0-7.238 6.035 9.193 9.193 0 0 0 6.004 11.846 9.204 9.204 0 0 0 11.585-6.5h32.775a9.195 9.195 0 0 0 6.697 6.629 9.204 9.204 0 0 0 11.227-7.1 9.192 9.192 0 0 0-3.123-8.89 9.201 9.201 0 0 0-4.451-2.02zM9.2 41.401a4.602 4.602 0 0 1-4.512-5.495 4.598 4.598 0 0 1 6.272-3.352 4.6 4.6 0 0 1 2.84 4.249A4.597 4.597 0 0 1 9.2 41.4zM34.5 4.616a4.601 4.601 0 0 1 4.512 5.495 4.598 4.598 0 0 1-6.272 3.351 4.6 4.6 0 0 1-1.493-7.5A4.601 4.601 0 0 1 34.5 4.617zm25.3 36.785a4.601 4.601 0 0 1-4.512-5.495 4.598 4.598 0 0 1 6.272-3.352 4.6 4.6 0 0 1 2.84 4.249 4.597 4.597 0 0 1-4.6 4.598z"/></svg>