<svg xmlns="http://www.w3.org/2000/svg" width="209" height="161" fill="none"><path fill="#303030" d="M105.082 15.81c-34.345 25.007-76.403-.17-98.998 48.32-9.322 20.01-5.627 39.475 3.746 60.872 10.895 24.852 26.357 34.635 48.73 35.764 12.913.65 23.774-4.96 36.328-12.657 9.134 5.576 21.466 11.477 32.891 11.545 0 0-9.988-7.235-13.17-23.637 4.755-2.754 9.852-5.525 15.428-8.176 34.909-16.574 47.361-1.625 68.433-27.127 34.448-41.717-21.807-137.02-93.388-84.904z"/><path fill="#fff" d="m142.506 39.209 13.393 47.618c.581 2.07.137 4.173-1.009 5.815a6.808 6.808 0 0 1-3.729 2.634l-86.119 24.236a6.738 6.738 0 0 1-4.567-.307 6.83 6.83 0 0 1-3.9-4.447L43.184 67.14a6.805 6.805 0 0 1 1.01-5.816 6.844 6.844 0 0 1 3.745-2.616l86.119-24.237c1.556-.444 3.164-.29 4.567.29 1.83.805 3.301 2.361 3.882 4.448z"/><path fill="#6637ED" d="m114.063 72.904 40.845 19.738a6.805 6.805 0 0 1-3.729 2.634l-4.31 1.214-36.603-17.685-5.422 8.432c-.496.736-1.197 1.249-2.001 1.471a3.484 3.484 0 0 1-2.446-.222l-9.065-4.345-21.979 34.174-8.877.907L85.021 81.08 44.193 61.325a6.843 6.843 0 0 1 3.746-2.617l4.31-1.215 48.388 23.398 29.111-45.205 4.31-1.215c1.556-.444 3.164-.29 4.567.29l-24.562 38.143z"/></svg>