<svg xmlns="http://www.w3.org/2000/svg" width="101" height="167" fill="none"><path stroke="#fff" stroke-width="2" d="M95.635 87.621c2.485 4.129 4.895 13.98 2.332 24.289-2.54 10.216-9.98 20.93-27.287 26.89l-.622.214-.05.656c-.545 7.169-4.303 13.73-8.004 18.551a57.836 57.836 0 0 1-4.998 5.686l-.231.229c1.052-9.824-.285-16.681-1.666-20.823l-.243-.727-.765.045c-11.565.679-22.648-3.183-31.465-12.505-12.078-12.797-10.802-26.439-10.005-34.959.167-1.788.313-3.351.31-4.633v-.001c-.016-4.723-1.063-9.278-2.468-13.706-.855-2.697-1.865-5.406-2.861-8.08-.624-1.674-1.243-3.333-1.814-4.966C.463 48.505.92 36.234 5.279 26.593 9.643 16.942 17.986 9.771 28.72 4.84 42.746-1.6 59.885.63 72.638 10.169 88.672 22.165 94.142 42.37 86.464 60.254c-1.366 3.188-1.36 6.813-.93 10.056.462 3.53 2.22 6.507 4.206 9.247.722.997 1.46 1.947 2.188 2.883 1.329 1.71 2.62 3.372 3.708 5.181z"/><path fill="#D884FF" d="M44.467 98.853a5.78 5.78 0 0 0-5.777 5.777 5.78 5.78 0 0 0 5.777 5.777 5.78 5.78 0 0 0 5.777-5.777c.017-3.187-2.573-5.776-5.777-5.776zm15.567-52.445c-3.916-3.932-9.192-5.89-15.826-5.89-6.311 0-11.392 1.941-15.276 5.825-1.845 1.845-3.285 3.884-4.32 6.1-1.764 3.771.485 8.383 4.223 8.917 2.346.324 4.628-1.1 5.615-3.544.744-1.86 1.7-3.35 2.897-4.498 1.974-1.894 4.434-2.832 7.362-2.832 3.043 0 5.47.906 7.266 2.718 1.796 1.813 2.686 3.997 2.686 6.538 0 1.828-.501 3.511-1.52 5.032-.664.955-2.67 2.994-6.053 6.1-3.366 3.108-5.615 5.891-6.748 8.383-.485 1.084-.857 3.625-1.133 6.133-.372 3.447 2.04 6.473 5.098 6.473 2.524 0 4.709-2.104 5.065-4.936.13-1.084.34-1.925.599-2.556.582-1.392 2.103-3.237 4.547-5.535 4.709-4.433 7.8-7.945 9.24-10.518 1.44-2.573 2.152-5.308 2.152-8.188.016-5.227-1.942-9.806-5.874-13.722z"/></svg>