<svg xmlns="http://www.w3.org/2000/svg" width="157" height="157" fill="none"><path fill="#562AD2" d="M156.018 78.442c0 42.871-34.753 77.624-77.624 77.624-42.87 0-77.623-34.753-77.623-77.624C.77 35.572 35.524.82 78.394.82c42.871 0 77.624 34.753 77.624 77.623zm-125.177 0c0 26.263 21.29 47.553 47.553 47.553 26.263 0 47.553-21.29 47.553-47.553 0-26.262-21.29-47.552-47.553-47.552-26.263 0-47.553 21.29-47.553 47.552z"/><path fill="#2C1277" d="M78.394.819a77.624 77.624 0 1 0 77.47 72.736l-30.011 1.893a47.558 47.558 0 0 1-27.206 46.019 47.554 47.554 0 0 1-66.66-32.648 47.552 47.552 0 0 1 46.407-57.93V.82z"/><path fill="#FF5F85" d="M152.187 102.527a77.622 77.622 0 0 0-38.328-93.133l-13.748 26.767a47.533 47.533 0 0 1 23.47 57.03l28.606 9.336z"/><path fill="#FCC55A" d="M78.394.819a77.624 77.624 0 1 0 54.888 132.512l-21.263-21.263A47.554 47.554 0 1 1 78.394 30.89V.819z"/><path fill="#fff" d="M17.684 30.073A77.623 77.623 0 0 0 .919 83.249l30.014-1.862a47.553 47.553 0 0 1 10.27-32.576l-23.52-18.738z"/></svg>