<svg xmlns="http://www.w3.org/2000/svg" width="24" height="24" fill="none"><path stroke="#fff" stroke-linecap="round" stroke-linejoin="round" stroke-width="2" d="M15.424 14.776a.927.927 0 0 1 .878-.08l5.456 2.445a.926.926 0 0 1 .555.96 5.591 5.591 0 0 1-5.546 4.85A15.734 15.734 0 0 1 1.033 7.217a5.591 5.591 0 0 1 4.85-5.546.925.925 0 0 1 .96.555l2.445 5.46a.925.925 0 0 1-.077.872l-2.472 2.94a.918.918 0 0 0-.063.903c.957 1.959 2.982 3.959 4.946 4.907a.916.916 0 0 0 .906-.069l2.896-2.463z"/></svg>