<svg xmlns="http://www.w3.org/2000/svg" width="150" height="189" fill="none"><path stroke="#fff" d="M138.592 85.319c-2.129-8.35-.607-16.828 1.132-25.232l.375-1.798c1.636-7.832 3.258-15.594 2.242-23.296-1.497-11.356-9.262-20.978-19.732-27.12-10.469-6.143-23.584-8.77-35.68-6.184a443.31 443.31 0 0 0-3.731.82c-8.113 1.808-14.135 3.15-22.73 1.434C32.01-1.748 11.26 10.76 5.65 24.867 2.228 33.49.97 40.27 1.074 46.033c.104 5.76 1.566 10.541 3.632 15.173 1.16 2.6 2.52 5.165 3.934 7.834 3.608 6.809 7.578 14.298 9.518 24.781.59 3.198-.312 6.862-1.51 10.899-.21.708-.43 1.428-.653 2.163-1.064 3.492-2.221 7.288-2.875 11.435-.789 5.005-.839 10.499.915 16.505 1.754 6.006 5.32 12.553 11.805 19.65 8.7 9.531 22.225 15.129 35.738 17.34l.659.108-.288.601c-2.536 5.294-6.001 11.346-10.015 15.147a102.33 102.33 0 0 0 8.426-3.01c6.058-2.47 13.497-6.201 19.125-11.259l.145-.131.196.003c16.29.223 35.492-2.261 49.506-11.512 6.997-4.619 12.699-10.922 16.112-19.426 3.414-8.508 4.551-19.253 2.358-32.774-.678-4.173-2.421-8.092-4.288-12.056l-.512-1.083c-1.701-3.593-3.429-7.245-4.41-11.103zm0 0 .484-.124-.484.124z"/><path fill="#4B4DF6" d="m102.266 125.333-8.786-10.916a7.212 7.212 0 0 0-10.134-1.099l-2.646 2.13a3.616 3.616 0 0 1-5.076-.549l-10.9-13.545-1.297-1.614-10.9-13.546a3.617 3.617 0 0 1 .55-5.075l2.645-2.13a7.212 7.212 0 0 0 1.099-10.134l-8.787-10.917A7.212 7.212 0 0 0 37.9 56.84l-2.895 2.33c-7.539 6.057-8.72 17.09-2.663 24.628l6.84 8.503 13.162 16.358 1.298 1.614 13.163 16.358 6.84 8.503c6.056 7.539 17.09 8.72 24.627 2.663l2.896-2.33c3.095-2.496 3.578-7.022 1.098-10.134z"/><path fill="#fff" d="M92.048 100.439c-.1 0-.2 0-.3-.034-.898-.166-1.514-1.031-1.347-1.93 1.231-6.89.183-12.43-3.096-16.49-5.59-6.907-15.991-7.356-16.091-7.356a1.68 1.68 0 0 1-1.614-1.714c.033-.915.882-1.647 1.714-1.614.483.016 11.981.483 18.554 8.57 3.927 4.842 5.192 11.282 3.794 19.186a1.615 1.615 0 0 1-1.614 1.382z"/><path fill="#fff" d="M102.515 99.89h-.149a1.663 1.663 0 0 1-1.498-1.814c2.796-29.72-25.776-33.398-26.991-33.547a1.666 1.666 0 0 1-1.465-1.847c.1-.916.949-1.565 1.848-1.465.332.033 33.031 4.16 29.919 37.159a1.677 1.677 0 0 1-1.664 1.514z"/><path fill="#fff" d="M112.883 98.11a1.655 1.655 0 0 1-1.665-1.648c-.216-33.98-32.2-41.402-33.547-41.701a1.658 1.658 0 0 1-1.265-1.98 1.666 1.666 0 0 1 1.98-1.265c.367.083 35.928 8.253 36.177 44.93a1.705 1.705 0 0 1-1.68 1.663z"/></svg>