<svg xmlns="http://www.w3.org/2000/svg" width="115" height="50" fill="none"><path fill="#4EA45E" d="M108.11.904a5.342 5.342 0 0 1 5.343 5.343V43.02a5.342 5.342 0 0 1-5.343 5.342H6.74a5.342 5.342 0 0 1-5.343-5.342V6.247A5.342 5.342 0 0 1 6.74.904h101.37z"/><path fill="#000" d="M108.109 49.035H6.739a6.023 6.023 0 0 1-6.015-6.019V6.244A6.022 6.022 0 0 1 6.739.229h19.996a.673.673 0 0 1 0 1.344H6.739a4.677 4.677 0 0 0-4.67 4.67v36.773a4.677 4.677 0 0 0 4.67 4.67h101.367a4.677 4.677 0 0 0 4.67-4.67V6.244a4.677 4.677 0 0 0-4.67-4.67H40.213a.673.673 0 0 1 0-1.345h67.896c3.316 0 6.018 2.698 6.018 6.015v36.772c-.003 3.32-2.702 6.019-6.018 6.019z"/><path fill="#000" d="M98.656 19.08H18.094a.673.673 0 0 1 0-1.345h80.562a.673.673 0 0 1 0 1.345zm0 10.769H81.812a.673.673 0 0 1 0-1.345h16.844a.673.673 0 0 1 0 1.345zm-27.609 0H18.094a.673.673 0 0 1 0-1.345h52.953a.673.673 0 0 1 0 1.345z"/></svg>