<svg xmlns="http://www.w3.org/2000/svg" width="66" height="68" fill="none"><path fill="#000" d="M60.923 7.556H35.538V2.519c0-.668-.267-1.309-.743-1.781a2.549 2.549 0 0 0-3.59 0 2.509 2.509 0 0 0-.743 1.78v5.038H5.076c-1.347 0-2.638.53-3.59 1.475A5.017 5.017 0 0 0 0 12.593V50.37c0 1.336.535 2.617 1.487 3.562a5.097 5.097 0 0 0 3.59 1.475h12.502l-6.854 8.5a2.507 2.507 0 0 0 .62 3.7c.404.254.87.39 1.347.393a2.49 2.49 0 0 0 1.968-.945l9.392-11.648h17.896l9.392 11.648a2.471 2.471 0 0 0 1.968.945 2.553 2.553 0 0 0 1.346-.392c.403-.254.725-.615.93-1.042a2.501 2.501 0 0 0-.309-2.659l-6.854-8.5h12.502c1.347 0 2.638-.53 3.59-1.475A5.017 5.017 0 0 0 66 50.37V12.593a5.017 5.017 0 0 0-1.487-3.562 5.097 5.097 0 0 0-3.59-1.475zm-35.538 32.74c0 .668-.268 1.309-.744 1.781a2.549 2.549 0 0 1-3.59 0 2.508 2.508 0 0 1-.743-1.78V32.74c0-.668.267-1.309.743-1.781a2.548 2.548 0 0 1 3.59 0c.476.472.744 1.113.744 1.78v7.556zm10.153 0c0 .668-.267 1.309-.743 1.781a2.549 2.549 0 0 1-3.59 0 2.509 2.509 0 0 1-.743-1.78V27.703c0-.668.267-1.309.743-1.781a2.549 2.549 0 0 1 3.59 0c.476.472.743 1.113.743 1.78v12.593zm10.154 0c0 .668-.267 1.309-.743 1.781a2.549 2.549 0 0 1-3.59 0 2.508 2.508 0 0 1-.744-1.78v-17.63c0-.668.268-1.309.744-1.781a2.549 2.549 0 0 1 3.59 0c.476.472.743 1.113.743 1.78v17.63z"/></svg>