<svg xmlns="http://www.w3.org/2000/svg" width="22" height="23" fill="none"><path fill="url(#a)" d="M11.135 22.464a2.302 2.302 0 0 1-2.29-2.3V3.267a2.301 2.301 0 0 1 2.29-2.299 2.302 2.302 0 0 1 2.291 2.3v16.898c0 1.264-1.03 2.3-2.29 2.3z"/><path fill="url(#b)" d="M19.543 14.003H2.704a2.302 2.302 0 0 1-2.29-2.3 2.3 2.3 0 0 1 2.29-2.298h16.839a2.302 2.302 0 0 1 2.291 2.299 2.287 2.287 0 0 1-2.291 2.299z"/><defs><linearGradient id="a" x1="8.841" x2="13.423" y1="11.71" y2="11.71" gradientUnits="userSpaceOnUse"><stop stop-color="#FFAC66"/><stop offset="1" stop-color="#FF9766"/></linearGradient><linearGradient id="b" x1=".422" x2="21.84" y1="11.71" y2="11.71" gradientUnits="userSpaceOnUse"><stop stop-color="#FFAC66"/><stop offset="1" stop-color="#FF9766"/></linearGradient></defs></svg>