<svg xmlns="http://www.w3.org/2000/svg" width="60" height="50" fill="none"><path fill="#000" d="M55.12 0H4.88a4.92 4.92 0 0 0-3.45 1.407A4.764 4.764 0 0 0 0 4.802v40.396a4.76 4.76 0 0 0 1.43 3.395A4.921 4.921 0 0 0 4.88 50h50.24a4.921 4.921 0 0 0 3.45-1.407A4.763 4.763 0 0 0 60 45.198V4.802a4.764 4.764 0 0 0-1.43-3.395A4.921 4.921 0 0 0 55.12 0zM27.99 26.751l-11.483 9.04a2.29 2.29 0 0 1-1.435.508 2.27 2.27 0 0 1-.99-.22 2.232 2.232 0 0 1-.79-.627 2.22 2.22 0 0 1-.502-1.653 2.208 2.208 0 0 1 .846-1.51L22.88 25l-9.244-7.288a2.28 2.28 0 0 1-.665-.665 2.239 2.239 0 0 1-.284-1.806 2.256 2.256 0 0 1 1.165-1.422 2.324 2.324 0 0 1 2.655.39l11.483 9.04c.27.209.487.475.636.778a2.203 2.203 0 0 1-.636 2.724zM44.928 36.3H33.445c-.61 0-1.193-.238-1.624-.661a2.242 2.242 0 0 1-.673-1.599c0-.599.242-1.174.673-1.597a2.316 2.316 0 0 1 1.624-.662h11.483c.61 0 1.194.238 1.624.662.43.423.673.998.673 1.597 0 .6-.242 1.175-.673 1.599a2.316 2.316 0 0 1-1.624.661z"/></svg>