<svg xmlns="http://www.w3.org/2000/svg" width="199" height="154" fill="none"><path fill="#fff" stroke="#fff" stroke-linecap="round" d="M116.237 72.347c-7.434-15.699-21.018-12.541-26.88-9 1.648 6.666 7.82 22.904 19.324 34.524 5.617-1.967 14.991-9.825 7.556-25.524z"/><path stroke="#fff" stroke-linecap="round" d="m122.977 36.02 12.02-21.252m2.222-3.107 2.31-4.965m22.93 29.454 8.42-4.766m10.759 34.112 6.913-1.015m-16.584 30.386 7.942-.155m-47.078-43.107 27.03-13.901m-18.276 35.049 34.835-6.118M148.19 93.31l19.988 1.319M55.893 148.101l-15.179-21.422 16.325-2.788 14.734 21.28-15.88 2.93z"/><path stroke="#fff" stroke-linecap="round" d="m71.758 145.178 6.273-1.055-14.393-21.245m-36.224-20.712-12.946 8.965c.904 6.52 4.896 19.927 13.636 21.397l12.155-6.025"/><path stroke="#fff" stroke-linecap="round" d="M27.215 99.647c-.032 6.503 2.753 21.004 14.154 26.988l90.462-16.158M27.226 99.644l64.762-64.128"/><ellipse cx="114.09" cy="71.949" stroke="#fff" stroke-linecap="round" rx="19.939" ry="42.75" transform="rotate(-28.718 114.09 71.949)"/><path stroke="#fff" stroke-linecap="round" d="m82.775 52.807-49.172 48.036M44.9 97.85l-11.923 10.963"/><path stroke="#14191B" stroke-linecap="round" d="M89.947 67.543c6.835-3.286 20.351-5.534 24.744 15.801"/></svg>