<svg xmlns="http://www.w3.org/2000/svg" width="22" height="18" fill="none"><path fill="#fff" d="M21.471 2.756c-.805.35-1.657.58-2.53.683a4.359 4.359 0 0 0 1.939-2.395 8.849 8.849 0 0 1-2.799 1.05A4.434 4.434 0 0 0 14.865.722c-2.435 0-4.405 1.94-4.405 4.331-.001.333.037.664.114.988a12.563 12.563 0 0 1-9.08-4.528 4.275 4.275 0 0 0-.6 2.177c0 1.502.785 2.83 1.969 3.607a4.364 4.364 0 0 1-2.003-.54v.053c0 2.1 1.52 3.848 3.534 4.246a4.51 4.51 0 0 1-1.16.152c-.279 0-.556-.026-.829-.08.56 1.72 2.188 2.972 4.118 3.008A8.932 8.932 0 0 1 0 15.928a12.472 12.472 0 0 0 6.743 1.958c8.112 0 12.544-6.602 12.544-12.328 0-.188-.005-.375-.014-.559a8.877 8.877 0 0 0 2.198-2.243z"/></svg>