<svg xmlns="http://www.w3.org/2000/svg" width="75" height="75" fill="none"><g clip-path="url(#a)"><path fill="#fff" d="M34.047 62.311a24.451 24.451 0 0 1-14.227-7.027c-9.64-9.655-9.64-25.286 0-34.922 8.863-8.876 22.817-9.577 32.476-2.102l8.182-8.195C46.272-1.887 25.069-1.167 11.697 12.206c-14.11 14.133-14.11 37.063 0 51.195a35.98 35.98 0 0 0 22.35 10.454V62.31z"/><path fill="#000" d="M34.047 74.633h-.058A36.88 36.88 0 0 1 11.19 63.966c-14.382-14.405-14.382-37.842 0-52.227C17.761 5.16 26.487 1.325 35.757.955a36.6 36.6 0 0 1 25.208 8.604c.155.136.252.33.252.526a.8.8 0 0 1-.214.544l-8.182 8.196c-.252.253-.68.292-.952.058-9.504-7.377-23.07-6.502-31.543 2.005-4.529 4.536-7.016 10.55-7.016 16.955 0 6.404 2.487 12.419 7.016 16.954 3.77 3.777 8.532 6.132 13.818 6.814.37.039.642.35.642.72v11.582a.708.708 0 0 1-.234.545c-.155.097-.33.175-.505.175zm3.246-72.199c-9.135 0-18.25 3.465-25.091 10.317-13.818 13.84-13.818 36.343 0 50.164 5.675 5.684 13.158 9.285 21.106 10.161V62.934c-5.344-.837-10.184-3.29-14.012-7.144-4.8-4.808-7.444-11.193-7.444-17.986 0-6.794 2.643-13.179 7.444-17.987 8.843-8.857 22.894-9.908 32.923-2.55l7.152-7.163c-6.414-5.12-14.246-7.67-22.078-7.67zm19.493 20.323a24.634 24.634 0 0 1 5.13 15.164l11.467 1.323c.33-8.74-2.468-17.577-8.415-24.663l-8.182 8.176z"/><path fill="#fff" d="M73.364 39.983h-.078L61.82 38.66a.718.718 0 0 1-.64-.72 24.054 24.054 0 0 0-4.976-14.717.716.716 0 0 1 .058-.953l8.182-8.195a.763.763 0 0 1 .544-.215c.195 0 .39.098.525.253 5.889 7.028 8.94 15.962 8.59 25.17 0 .194-.097.39-.252.525a.745.745 0 0 1-.486.175zm-10.728-2.705 10.028 1.148a35.503 35.503 0 0 0-7.754-22.775l-7.152 7.164a25.795 25.795 0 0 1 4.878 14.463z"/><path fill="#FFD42E" d="M61.062 44.227a24.662 24.662 0 0 1-6.375 11.057 24.48 24.48 0 0 1-14.304 7.027v11.583c8.182-.701 16.17-4.205 22.428-10.473a36.022 36.022 0 0 0 9.756-17.87l-11.505-1.324z"/><path fill="#000" d="M40.383 74.633a.674.674 0 0 1-.486-.195.708.708 0 0 1-.233-.545V62.311c0-.37.272-.681.64-.72 5.307-.681 10.088-3.037 13.877-6.813a23.75 23.75 0 0 0 6.18-10.745.743.743 0 0 1 .798-.545l11.505 1.323c.214.02.389.137.506.292a.77.77 0 0 1 .116.584 36.792 36.792 0 0 1-9.95 18.24A36.952 36.952 0 0 1 40.46 74.614c-.038.019-.058.019-.077.019zm.738-11.68v10.142a35.456 35.456 0 0 0 21.184-10.18 35.447 35.447 0 0 0 9.387-16.722l-10.086-1.168a25.334 25.334 0 0 1-6.394 10.785c-3.868 3.873-8.727 6.326-14.09 7.143z"/></g><defs><clipPath id="a"><path fill="#fff" d="M.385.896h73.737v73.737H.385z"/></clipPath></defs></svg>