<svg xmlns="http://www.w3.org/2000/svg" width="19" height="18" fill="none"><path fill="url(#a)" d="M9.44 17.745a1.733 1.733 0 0 1-1.748-1.753V2.072C7.692 1.09 8.461.32 9.44.32s1.747.771 1.747 1.753v13.92c0 .947-.803 1.753-1.747 1.753z"/><path fill="url(#b)" d="M16.357 10.768H2.487A1.733 1.733 0 0 1 .74 9.015c0-.982.768-1.753 1.747-1.753h13.87c.979 0 1.747.771 1.747 1.753 0 .982-.768 1.753-1.747 1.753z"/><defs><linearGradient id="a" x1="7.683" x2="11.177" y1="9.022" y2="9.022" gradientUnits="userSpaceOnUse"><stop stop-color="#7565F4"/><stop offset="1" stop-color="#6151E0"/></linearGradient><linearGradient id="b" x1=".757" x2="18.107" y1="9.022" y2="9.022" gradientUnits="userSpaceOnUse"><stop stop-color="#7565F4"/><stop offset="1" stop-color="#6151E0"/></linearGradient></defs></svg>