<svg xmlns="http://www.w3.org/2000/svg" width="21" height="20" fill="none"><path fill="url(#a)" d="M10.711 19.967a1.95 1.95 0 0 1-1.966-1.973V2.33A1.95 1.95 0 0 1 10.711.357c1.1 0 1.966.868 1.966 1.973v15.664a1.975 1.975 0 0 1-1.966 1.973z"/><path fill="url(#b)" d="M18.496 12.155H2.887a1.95 1.95 0 0 1-1.966-1.973A1.95 1.95 0 0 1 2.887 8.21h15.61c1.1 0 1.965.868 1.965 1.973a1.95 1.95 0 0 1-1.966 1.973z"/><defs><linearGradient id="a" x1="8.739" x2="12.671" y1="10.174" y2="10.174" gradientUnits="userSpaceOnUse"><stop stop-color="#52AC62"/><stop offset="1" stop-color="#468F55"/></linearGradient><linearGradient id="b" x1=".941" x2="20.47" y1="10.175" y2="10.175" gradientUnits="userSpaceOnUse"><stop stop-color="#52AC62"/><stop offset="1" stop-color="#468F55"/></linearGradient></defs></svg>