<svg xmlns="http://www.w3.org/2000/svg" width="63" height="50" fill="none"><path stroke="#18191D" stroke-linecap="round" stroke-linejoin="round" stroke-width="2" d="M26.84 40.054H5.308A4.307 4.307 0 0 1 1 35.748V16.367a4.307 4.307 0 0 1 4.307-4.307H26.84m0 36.608H13.92M52.682 9.907h-8.614m8.614 8.613h-8.614"/><path fill="#fff" stroke="#18191D" stroke-linecap="round" stroke-linejoin="round" stroke-width="2" d="M59.142 1.293H37.608c-1.19 0-2.153.964-2.153 2.153v43.069c0 1.189.964 2.153 2.153 2.153h21.534c1.19 0 2.153-.964 2.153-2.153V3.446a2.153 2.153 0 0 0-2.153-2.153z"/><path stroke="#18191D" stroke-linecap="round" stroke-linejoin="round" stroke-width="2" d="M20.38 40.054v8.614"/><path fill="#18191D" d="M48.375 41.67a2.692 2.692 0 1 0 0-5.384 2.692 2.692 0 0 0 0 5.383z"/></svg>