<svg xmlns="http://www.w3.org/2000/svg" width="88" height="57" fill="none"><path fill="#fff" d="M13.686 55.978a.537.537 0 0 0 .436-.226l11.221-16.524 53.699.095c2.092.004 3.836-1.509 4.163-3.59L87.807 5.81a4.264 4.264 0 0 0-.963-3.401A4.201 4.201 0 0 0 83.66.93L4.63.79a4.201 4.201 0 0 0-3.19 1.467 4.264 4.264 0 0 0-.976 3.398L4.96 35.594c.32 2.082 2.058 3.601 4.15 3.605l3.946.007.112 16.247c0 .227.154.44.378.51.042 0 .098.015.14.015zM83.658 1.992a3.13 3.13 0 0 1 2.385 1.11c.602.709.853 1.63.711 2.55l-4.602 29.923a3.141 3.141 0 0 1-3.123 2.685l-53.965-.095a.537.537 0 0 0-.435.226L14.196 53.74l-.114-15.072a.524.524 0 0 0-.533-.525l-4.465-.008a3.152 3.152 0 0 1-3.113-2.696L1.475 5.5a3.217 3.217 0 0 1 .72-2.548 3.13 3.13 0 0 1 2.39-1.1l79.073.14z"/><path fill="#fff" d="M60.16 19.629a1.42 1.42 0 0 0-1.415-1.433 1.42 1.42 0 0 0-1.421 1.428 1.42 1.42 0 0 0 1.416 1.433 1.43 1.43 0 0 0 1.42-1.428z"/><path fill="#fff" d="M58.739 21.58a1.95 1.95 0 0 0 1.941-1.95 1.95 1.95 0 0 0-1.934-1.959 1.95 1.95 0 0 0-1.942 1.952 1.932 1.932 0 0 0 1.935 1.958zm.005-2.86c.491 0 .884.398.883.893a.885.885 0 1 1-1.77-.003.885.885 0 0 1 .887-.89zm-14.425 2.312a1.424 1.424 0 0 1-1.416-1.433c.002-.79.638-1.43 1.42-1.429a1.425 1.425 0 0 1 1.417 1.433 1.425 1.425 0 0 1-1.421 1.429z"/><path fill="#fff" d="M44.318 21.555a1.95 1.95 0 0 0 1.941-1.95 1.95 1.95 0 0 0-1.934-1.959 1.95 1.95 0 0 0-1.942 1.951 1.95 1.95 0 0 0 1.935 1.958zm.005-2.86c.492 0 .884.397.883.893a.885.885 0 1 1-1.77-.003.893.893 0 0 1 .887-.89zm-12.992.883a1.42 1.42 0 0 0-1.415-1.433 1.42 1.42 0 0 0-1.421 1.428 1.42 1.42 0 0 0 1.416 1.433 1.42 1.42 0 0 0 1.42-1.428z"/><path fill="#fff" d="M29.91 21.53a1.95 1.95 0 0 0 1.941-1.951 1.95 1.95 0 0 0-1.934-1.958 1.95 1.95 0 0 0-1.942 1.95 1.95 1.95 0 0 0 1.935 1.96zm.005-2.861c.491 0 .884.398.883.894a.885.885 0 1 1-1.77-.003.894.894 0 0 1 .887-.891z"/></svg>