<svg xmlns="http://www.w3.org/2000/svg" width="34" height="35" fill="none"><path fill="#FCC55A" d="M.262 15.202a11.083 11.083 0 0 1 4.478-3.547 6.538 6.538 0 1 1 8.827 0A11.146 11.146 0 0 1 17 13.992a11.132 11.132 0 0 1 3.433-2.337 6.537 6.537 0 1 1 8.827 0 11.083 11.083 0 0 1 4.479 3.547 1.308 1.308 0 0 1-.262 1.83 1.324 1.324 0 0 1-1.83-.261 8.501 8.501 0 0 0-13.6 0l-.099.098h-.016l-.082.082-.049.032a.016.016 0 0 1-.016.016l-.05.033-.049.033-.081.05h-.033l-.278.097h-.54l-.13-.032h-.049l-.147-.066-.05-.033a.766.766 0 0 1-.146-.098h-.017l-.049-.049h-.032c-.033-.032-.066-.049-.082-.081h-.016l-.099-.115a8.5 8.5 0 0 0-13.583.017 1.308 1.308 0 0 1-1.046.539 1.259 1.259 0 0 1-.785-.262 1.307 1.307 0 0 1-.261-1.83zM29.26 28.654a6.538 6.538 0 1 0-8.827 0A11.133 11.133 0 0 0 17 30.99a11.133 11.133 0 0 0-3.433-2.337 6.538 6.538 0 1 0-8.827 0A11.083 11.083 0 0 0 .262 32.2a1.308 1.308 0 0 0 1.046 2.092h31.384a1.308 1.308 0 0 0 1.047-2.092 11.083 11.083 0 0 0-4.48-3.547z"/></svg>