<svg xmlns="http://www.w3.org/2000/svg" width="245" height="237" fill="none"><g filter="url(#a)"><rect width="236.648" height="228.888" x="4.33" y=".046" fill="#14191B" rx="26"/><rect width="235.148" height="227.388" x="5.08" y=".796" stroke="#fff" stroke-width="1.5" rx="25.25"/></g><path stroke="#fff" stroke-width="1.5" d="M4.83 49.512h234.423"/><circle cx="32.964" cy="29.22" r="9.671" fill="#6637ED" opacity=".29"/><circle cx="57.837" cy="29.22" r="9.671" fill="#FCC55A" opacity=".29"/><circle cx="82.71" cy="29.592" r="9.671" fill="#D884FF" opacity=".29"/><mask id="b" width="176" height="122" x="32" y="74" maskUnits="userSpaceOnUse" style="mask-type:alpha"><rect width="175.201" height="120.892" x="32.592" y="74.974" fill="#D9D9D9" rx="13"/></mask><g mask="url(#b)"><path fill="#fff" d="M32.592 86.956c0-6.618 5.365-11.982 11.982-11.982h151.237c6.617 0 11.982 5.364 11.982 11.982v96.928c0 6.617-5.365 11.982-11.982 11.982H44.574c-6.617 0-11.982-5.365-11.982-11.982V86.956z"/><path fill="#39AD61" d="M189.681 130.201c-4.006-9.339-14.814-13.659-24.153-9.654-9.339 4.006-13.659 14.814-9.653 24.153l-32.787 14.062 42.619 99.367 99.366-42.619-42.618-99.366-32.774 14.057z"/><path fill="#F84C26" d="M140.879 10.424C137.113.982 126.399-3.602 116.971.159c-9.442 3.766-14.026 14.48-10.265 23.909L73.594 37.3l40.11 100.398 35.977-14.373c-4.11-9.652.353-20.82 10.007-24.96 9.666-4.146 20.852.325 24.998 9.991.119.277.212.565.324.859l29.092-11.628L173.991-2.81l-33.112 13.234z"/><path fill="#0048FD" d="M-12.18 112.448c-9.367 3.959-13.75 14.745-9.798 24.101 3.953 9.355 14.746 13.75 24.102 9.797l13.86 32.85 32.85-13.861c-3.953-9.355.441-20.148 9.797-24.101 9.355-3.952 20.149.442 24.101 9.797l32.85-13.86-42.032-99.61-99.59 42.037 13.86 32.85z"/></g><defs><filter id="a" width="244.648" height="236.888" x=".33" y=".046" color-interpolation-filters="sRGB" filterUnits="userSpaceOnUse"><feFlood flood-opacity="0" result="BackgroundImageFix"/><feColorMatrix in="SourceAlpha" result="hardAlpha" values="0 0 0 0 0 0 0 0 0 0 0 0 0 0 0 0 0 0 127 0"/><feOffset dy="4"/><feGaussianBlur stdDeviation="2"/><feComposite in2="hardAlpha" operator="out"/><feColorMatrix values="0 0 0 0 0 0 0 0 0 0 0 0 0 0 0 0 0 0 0.25 0"/><feBlend in2="BackgroundImageFix" result="effect1_dropShadow_595_3486"/><feBlend in="SourceGraphic" in2="effect1_dropShadow_595_3486" result="shape"/></filter></defs></svg>