<svg xmlns="http://www.w3.org/2000/svg" width="246" height="238" fill="none"><g filter="url(#a)"><rect width="236.648" height="228.888" x="4.944" y=".59" fill="#14191B" rx="26"/><rect width="235.148" height="227.388" x="5.694" y="1.34" stroke="#fff" stroke-width="1.5" rx="25.25"/></g><path stroke="#fff" stroke-width="1.5" d="M5.444 50.056h234.423"/><circle cx="33.578" cy="29.764" r="9.671" fill="#6637ED"/><circle cx="58.451" cy="29.764" r="9.671" fill="#FCC55A"/><circle cx="83.324" cy="30.136" r="9.671" fill="#D884FF"/><mask id="b" width="176" height="122" x="33" y="75" maskUnits="userSpaceOnUse" style="mask-type:alpha"><rect width="175.201" height="120.892" x="33.206" y="75.518" fill="#D9D9D9" rx="13"/></mask><g mask="url(#b)"><path fill="#fff" d="M33.206 87.5c0-6.618 5.365-11.982 11.982-11.982h151.237c6.617 0 11.982 5.364 11.982 11.982v96.928c0 6.617-5.365 11.982-11.982 11.982H45.188c-6.617 0-11.982-5.365-11.982-11.982V87.5z"/><path fill="#0048FD" d="M176.871 19.927c60.873 38.495 79.776 118.861 42.071 180.524-37.706 61.664-117.858 81.47-179.86 44.818L176.871 19.927z"/><path fill="#0E0108" d="M174.373 126.695h-55.119a22.114 22.114 0 0 1 1.648-1.045c-1.69-.391-3.221-1.268-4.573-2.186-1.901-1.278-3.844-2.746-4.89-4.605-1.014-1.796-.94-3.76.328-5.46 1.309-1.753 3.485-3.052 5.629-4.066 1.88-.887 3.897-1.563 5.988-2.039-2.514-1.457-3.802-4.319-3.707-6.769a6.534 6.534 0 0 1 2.038-4.52c1.342-1.289 3.327-2.05 5.344-2.345 1.838-.275 3.697-.243 5.555-.106-.665-1.573.328-3.506 1.817-4.668 1.996-1.552 4.805-2.334 7.541-2.281 2.798.053 5.502.961 7.435 2.62a10.358 10.358 0 0 1 2.355 2.946c2.461 1.584 4.034 4.034 4.161 6.58 3.358-1.036 7.731.718 9.79 2.914 2.809 2.989.951 6.464-1.341 9.252 3.665.19 6.928 2.471 8.037 5.344 1.236 3.189-.254 6.611-2.809 9.125 1.658.105 3.347.581 4.773 1.309z"/><path fill="#fff" d="M146.28 141.47c3.897-.19 6.929-3.527 6.749-7.424l-.676-14.321c-.19-3.897-3.527-6.928-7.424-6.749-3.897.19-6.929 3.528-6.749 7.425l.676 14.321c.19 3.897 3.538 6.928 7.424 6.748z"/><path fill="#DFDFDF" d="m144.327 113.008 1.204-.052c3.559-.169 6.622 2.608 6.791 6.167l.242 5.08c-4.308 4.035-10.487 6.548-13.898 6.4l-.518-10.804c-.158-3.569 2.62-6.622 6.179-6.791z"/><path fill="#fff" d="M126.267 105.606a14.52 14.52 0 0 1 .581-4.763.674.674 0 0 1 .032-.138h.01c1.753-5.819 6.992-10.18 13.413-10.487 7.541-.359 14.015 5.017 15.229 12.283 0 .01.011.01.011.021 1.024 3.084-.898 10.413-2.102 14.405a10.292 10.292 0 0 1-2.999 4.7c-4.806 4.267-16.529 11.353-21.08 5.513-4.109-5.259-3.697-14.838-3.095-21.534z"/><path stroke="#0E0108" stroke-linecap="round" stroke-linejoin="round" stroke-miterlimit="10" stroke-width=".5" d="M131.326 116.895s1.711 1.5 4.108-.19"/><path fill="#0E0108" d="M146.323 109.197a.389.389 0 0 0 .222-.085c.169-.126.19-.369.063-.538-2.292-2.904-6.263-.93-6.305-.908a.376.376 0 0 0-.169.507c.095.19.327.264.507.169.137-.074 3.464-1.711 5.365.707.074.106.19.159.317.148zm-20.288-.612c.021-.253.032-.517.053-.771 1.584-.169 3.02.37 3.041.38a.37.37 0 0 1 .211.497.37.37 0 0 1-.496.211c-.01 0-1.373-.518-2.809-.317zm10.836 5.965a.412.412 0 0 0 .295-.158c.138-.19 3.496-4.71 9.125-1.721.19.095.412.031.518-.159a.384.384 0 0 0-.159-.517c-6.231-3.317-10.065 1.89-10.096 1.943a.373.373 0 0 0 .084.528.355.355 0 0 0 .233.084zm-10.963-2.988c1.627-.063 3.528.422 5.503 2.102.158.137.179.38.042.538a.384.384 0 0 1-.539.043c-1.816-1.542-3.548-1.997-5.016-1.944 0-.243.01-.486.01-.739z"/><path fill="#fff" d="M160.496 113.232a5.704 5.704 0 1 0-11.396.538 5.704 5.704 0 1 0 11.396-.538z"/><path stroke="#0E0108" stroke-linecap="round" stroke-linejoin="round" stroke-miterlimit="10" stroke-width=".5" d="M152.227 114.172s1.605-4.732 6.558-3.929m-26.097 11.986s5.524 1.658 7.911-3.559"/><path fill="#0E0108" d="M126.267 105.605a14.52 14.52 0 0 1 .581-4.763.674.674 0 0 1 .032-.138h.01c1.753-5.819 6.992-10.18 13.413-10.487 7.541-.359 14.015 5.017 15.229 12.283 0 .01.011.01.011.021.464 1.383 1.13 5.777 1.056 5.587-1.553.792-3.76 2.82-4.246 4.404-.095.306-.507.443-.728.19-2.113-2.302-2.567-5.788-1.204-8.544-1.711.232-3.465-1.088-4.394-2.471-.75-1.12-1.172-2.408-1.415-3.728a4.174 4.174 0 0 1-.465.718c-.707.876-1.732 1.489-2.862 1.605-1.309.148-2.556-.496-3.358-1.49-.064.518-.18 1.015-.412 1.501-.465.992-1.341 1.848-2.461 2.017-1.109.158-2.207-.402-2.883-1.268a1.629 1.629 0 0 1-.095-.147c-.148 1.394-.581 2.703-1.785 3.453-.813.507-1.848.56-2.609-.074a2.654 2.654 0 0 1-.243-.243c-.253.877-.623 1.711-1.204 2.313-.01-.243.011-.496.032-.739z"/><path fill="#fff" d="M159.63 118.479a3.3 3.3 0 0 0-3.295-3.295 3.299 3.299 0 0 0-3.295 3.295 3.3 3.3 0 0 0 3.295 3.295 3.3 3.3 0 0 0 3.295-3.295z"/><path fill="#D8948F" d="M50.248 196.673c.295-1.563 1.626-2.767 3.179-2.862 4.097-.243 11.5-1.183 11.5-1.183s-4.984-2.503-4.805-3.78c.148-1.014 10.002 2.555 14.004 4.055 5.028.401 39.309 2.218 52.289-21.841l22.59 18.028s-8.913 36.637-75.935 12.568c-3.95.064-9.483.127-11.986.042-4.098-.147-11.618-.961-11.618-.961l.782-4.066z"/><path stroke="#050528" stroke-linecap="round" stroke-linejoin="round" stroke-miterlimit="10" stroke-width=".5" d="m50.353 196.292 9.453-.391"/><path fill="#FFB127" d="m119.043 177.727 19.538-45.212s8.988 1.299 14.406-5.101c30.912 5.46 46.543 54.295 52.499 78.881-19.189 20.046-44.895 31.779-71.647 33.881v-31.367l-14.796-31.082z"/><path stroke="#fff" stroke-linecap="round" stroke-linejoin="round" stroke-miterlimit="10" stroke-width=".5" d="M133.85 208.81s25.981-14.099 21.809-46.829"/><path fill="#000" d="m82.248 143.035-5.423 1.699.788 2.539 5.423-1.699-.788-2.539z"/><path fill="#000" d="M77.641 147.661a.388.388 0 0 1-.395-.276l-.79-2.535a.36.36 0 0 1 .03-.296.452.452 0 0 1 .226-.195l5.426-1.698a.355.355 0 0 1 .294.031.46.46 0 0 1 .194.227l.79 2.536a.394.394 0 0 1-.256.491l-5.426 1.698a.298.298 0 0 1-.093.017zm-.32-2.675.558 1.786 4.682-1.465-.558-1.786-4.682 1.465z"/><path fill="#fff" d="M85.618 114.586c-2.426-7.791-10.742-12.097-18.469-9.475-7.238 2.46-11.35 10.287-9.297 17.695 1.13 4.054 3.823 7.206 7.24 9.004 3.732 1.963 6.47 3.16 7.725 7.215l9.526-2.984c-1.241-4.004.233-6.526 2.207-10.218a14.652 14.652 0 0 0 1.068-11.237z"/><path fill="#000" d="M72.836 139.423a.37.37 0 0 1-.212-.048.456.456 0 0 1-.194-.227c-1.131-3.633-3.517-4.877-6.826-6.609-.228-.119-.466-.249-.715-.367-3.678-1.936-6.317-5.219-7.435-9.242-2.123-7.655 2.072-15.635 9.544-18.175a14.688 14.688 0 0 1 11.517.849 14.846 14.846 0 0 1 7.45 8.884 14.93 14.93 0 0 1-1.097 11.543l-.203.372c-1.882 3.518-3.131 5.834-1.974 9.54a.36.36 0 0 1-.03.296.457.457 0 0 1-.226.195l-9.527 2.984c-.01-.01-.041.003-.072.005zm-2.05-34.651a14.429 14.429 0 0 0-3.525.72c-7.086 2.406-11.061 9.972-9.05 17.226 1.06 3.817 3.562 6.92 7.044 8.755.24.13.478.249.705.369 3.233 1.695 5.814 3.039 7.082 6.695l8.792-2.752c-1.05-3.808.3-6.331 2.145-9.773l.203-.371a14.128 14.128 0 0 0 1.037-10.941c-1.144-3.675-3.647-6.663-7.061-8.419a13.846 13.846 0 0 0-7.372-1.509z"/><path fill="#FFD42E" d="m72.53 141.24-1.39-4.476 11.28-3.531 1.39 4.475c.97 3.131-.758 6.47-3.88 7.443-3.11.972-6.43-.78-7.4-3.911z"/><path fill="#000" d="M78.164 145.962a5.677 5.677 0 0 1-3.04-.639 5.646 5.646 0 0 1-2.78-3.356l-1.582-5.081a.36.36 0 0 1 .031-.296.457.457 0 0 1 .226-.195l11.28-3.532a.392.392 0 0 1 .488.259l1.582 5.081c.928 3.008-.736 6.216-3.725 7.148l-1.193.37a6.05 6.05 0 0 1-1.287.241zm-6.536-8.939 1.46 4.701a4.888 4.888 0 0 0 2.401 2.89 4.878 4.878 0 0 0 3.729.347l1.194-.37c2.58-.808 4.016-3.569 3.211-6.166l-1.46-4.701-10.535 3.299z"/><path fill="#000" d="M73.085 138.545a.123.123 0 0 1-.132-.095c-.027-.072.02-.138.081-.164l8.7-2.724c.072-.026.138.022.163.083.026.072-.021.138-.082.163l-8.7 2.725c-.02.001-.03.012-.03.012zm-4.175-13.459a.123.123 0 0 1-.132-.095c-.026-.072.021-.138.082-.164l8.7-2.724c.07-.026.137.022.162.083.026.072-.02.138-.082.163l-8.7 2.725c-.01.011-.02.011-.03.012zm-3.14-25.3a.389.389 0 0 1-.396-.276l-1.676-5.378a.394.394 0 0 1 .256-.491.39.39 0 0 1 .489.258l1.665 5.38a.393.393 0 0 1-.339.507zm16.647.537a.378.378 0 0 1-.212-.047.394.394 0 0 1-.164-.534l2.599-4.988a.388.388 0 0 1 .53-.164.393.393 0 0 1 .164.534l-2.598 4.987a.4.4 0 0 1-.319.212zm9.711 11.552a.41.41 0 0 1-.406-.275.393.393 0 0 1 .256-.491l5.345-1.671a.391.391 0 0 1 .232.749l-5.345 1.671c-.02.012-.05.014-.082.017zm-38.921-2.397a.37.37 0 0 1-.212-.048l-4.959-2.619a.393.393 0 0 1-.164-.534.388.388 0 0 1 .53-.165l4.96 2.62a.398.398 0 0 1 .163.534.376.376 0 0 1-.318.212zm-6.812 16.727a.41.41 0 0 1-.406-.275.393.393 0 0 1 .256-.491l5.345-1.671a.391.391 0 0 1 .232.749l-5.335 1.671c-.03.002-.061.015-.092.017z"/><path fill="#000" d="M74.717 135.757a.399.399 0 0 1-.394-.254c-.038-.102-3.551-9.777-9.332-12.515a.394.394 0 0 1-.184-.522.39.39 0 0 1 .518-.185c6.073 2.874 9.586 12.549 9.73 12.958a.383.383 0 0 1-.235.5c-.03.013-.061.015-.103.018zm4.029-1.26a.4.4 0 0 1-.407-.295c-.115-.423-2.699-10.385.673-16.216a.396.396 0 0 1 .532-.144.4.4 0 0 1 .143.535c-3.215 5.547-.62 15.519-.601 15.623a.4.4 0 0 1-.278.482.125.125 0 0 1-.062.015z"/><path fill="#000" d="M65.193 123.048a.393.393 0 0 1-.14-.767c.388-.123.514-.405.708-.892.193-.497.43-1.112 1.194-1.357.765-.245 1.314.135 1.753.428.428.295.69.454 1.078.331.387-.123.513-.405.696-.89.194-.497.43-1.113 1.195-1.358.764-.245 1.314.135 1.752.429.429.294.69.453 1.078.33.388-.122.513-.405.707-.891.194-.497.43-1.113 1.195-1.358.775-.245 1.314.136 1.752.429.429.294.69.453 1.078.331a.39.39 0 0 1 .489.258.393.393 0 0 1-.257.491c-.775.246-1.314-.135-1.752-.428-.429-.295-.69-.454-1.078-.331-.388.123-.513.405-.697.891-.193.497-.43 1.112-1.194 1.357-.775.246-1.314-.135-1.753-.428-.428-.295-.68-.455-1.078-.331-.387.123-.513.405-.696.89-.194.497-.43 1.113-1.195 1.358-.775.245-1.314-.135-1.753-.429-.428-.294-.69-.453-1.077-.33-.388.122-.513.405-.707.891-.194.497-.43 1.113-1.195 1.358-.041.003-.072.015-.103.018z"/></g><defs><filter id="a" width="244.648" height="236.888" x=".944" y=".59" color-interpolation-filters="sRGB" filterUnits="userSpaceOnUse"><feFlood flood-opacity="0" result="BackgroundImageFix"/><feColorMatrix in="SourceAlpha" result="hardAlpha" values="0 0 0 0 0 0 0 0 0 0 0 0 0 0 0 0 0 0 127 0"/><feOffset dy="4"/><feGaussianBlur stdDeviation="2"/><feComposite in2="hardAlpha" operator="out"/><feColorMatrix values="0 0 0 0 0 0 0 0 0 0 0 0 0 0 0 0 0 0 0.25 0"/><feBlend in2="BackgroundImageFix" result="effect1_dropShadow_20_2"/><feBlend in="SourceGraphic" in2="effect1_dropShadow_20_2" result="shape"/></filter></defs></svg>