<svg xmlns="http://www.w3.org/2000/svg" width="42" height="21" fill="none"><path stroke="#fff" stroke-linecap="round" stroke-linejoin="round" stroke-miterlimit="10" stroke-width=".708" d="M1.258 1.21c-.573 2.818.36 6.286 3.008 7.759 2.346 1.302 5.309.782 7.79.194.721-.17 2.272-.881 2.53-1.695.655-2.074-4.077-1.727-2.106 1.957 1.324 2.474 4.003 4.162 6.802 4.293 2.05.095 4.113-.644 5.677-1.964.474-.4 1.352-1.066 1.444-1.809.233-1.936-1.802-2.159-2.22-.265-.633 2.874.57 5.984 2.733 7.977 3.765 3.472 9.318 3.394 13.993 2.24"/></svg>