<svg xmlns="http://www.w3.org/2000/svg" width="501" height="298" fill="none"><g filter="url(#a)"><rect width="490.541" height="287.457" x="5.171" y=".709" fill="#14191B" rx="28.988"/><rect width="488.868" height="285.785" x="6.007" y="1.545" stroke="#fff" stroke-width="1.672" rx="28.152"/></g><mask id="b" width="489" height="287" x="5" y="0" maskUnits="userSpaceOnUse" style="mask-type:alpha"><rect width="488.709" height="285.716" x="5.171" y=".709" fill="#14191B" rx="28.988"/></mask><g mask="url(#b)"><path fill="#222" d="M150.977 88.696c-6.839-3.55-12.316-1.314-12.316-1.314-20.924-2.455-27.028 21.944-26.748 30.344.28 8.394 1.241 17.414-8.107 28.323-26.995 31.512 29.537 32.899 29.537 32.899.481-25.173 30.658-15.986 29.33-13.437 38.691 9.281 3.857-68.748-11.696-76.815z"/><path fill="#FFB27D" d="M70.26 189.624s-3.684-5.605-6.646-5.712c-2.969-.113-8.46-1.648-8.02-.547.44 1.101 3.843 1.208 4.177 1.868.327.661-5.05 1.648-6.592 1.755-1.535.107-5.164 0-5.05.767.106.768 6.531 3.957 11.062 3.517 4.53-.441 10.134 1.321 10.134 1.321l.934-2.969z"/><path fill="#E3E3E3" d="M123.475 191.432s-2.001 3.963-5.624 8.514c-4.37 5.477-11.116 11.802-19.583 13.05-4.043.594-8-.274-11.629-1.888h-.013c-10.282-4.564-18.015-15.059-18.015-15.059-1.814-4.944 1.155-8.293 1.155-8.293s20.756 4.67 22.738 3.683c1.975-.988 13.511-34.214 16.253-38.391 2.749-4.176 12.109-6.345 12.109-6.345l2.609 44.729z"/><path fill="#222" d="M117.851 199.945c-4.37 5.477-11.116 11.802-19.583 13.05-4.043.594-8-.274-11.629-1.888.4.053 10.669 1.321 14.765-5.998 4.177-7.473 8.687-19.336 14.892-15.379 2.669 1.708 2.549 5.944 1.555 10.215z"/><path fill="#E3E3E3" d="M174.689 174.912s.534 7.479 0 16.453c-.353 5.945-6.371 13.911-7.225 15.886-2.142 4.944-4.558 5.744-4.558 5.744l-18.688 4.577-6.572 1.608-20.716-6.191s-9.441-26.341-5.651-41.173c3.789-14.832 9.581-25.127 9.581-25.127s15.906-3.309 38.924-1.401l14.905 29.624z"/><path fill="#ED7D2B" d="M118.251 216.999s-10.261 31.939-10.922 42.814c-.661 10.876 19.616 154.477 20.43 159.487.767 4.724 6.632 7.733 6.632 7.733s2.695 1.595 6.545.507c5.344-1.507 7.032-3.316 7.032-3.316s7.986-102.415 3.043-139.004c-4.944-36.582-4.998-68.221-4.998-68.221h-27.762z"/><path fill="#F99746" d="M161.725 216.044s15.653 21.003 17.114 35.201c1.461 14.198 2.289 64.065 5.398 77.903 3.109 13.837 14.531 40.472 14.531 83.64 0 0-1.187 2.475-4.85 3.789-1.174.421-2.742.828-4.27 1.181a6.714 6.714 0 0 1-7.506-3.563c-7.72-15.545-32.319-65.692-33.58-76.1-.894-7.366-8.661-56.118-25.601-84.728-4.07-6.865 2.496-34.181 2.496-34.181l36.268-3.142z"/><path fill="#233862" d="M116.61 212.062s4.116 3.255 12.303 3.422c9.774.2 33.994-2.488 33.994-2.488s1.074 3.009 1.034 6.185c0 0-29.584 7.459-46.724 1.087 0 0-2.209-4.157-.607-8.206z"/><path fill="#E3E3E3" d="M126.571 223.912c-2.462 0-4.457-2.262-4.457-5.051 0-2.782 2.002-5.05 4.457-5.05 2.462 0 4.457 2.261 4.457 5.05 0 2.789-2.002 5.051-4.457 5.051zm0-8.62c-1.641 0-2.982 1.601-2.982 3.569s1.334 3.57 2.982 3.57c1.641 0 2.982-1.602 2.982-3.57 0-1.968-1.341-3.569-2.982-3.569z"/><path fill="#6385DB" d="m158.68 176.362-30.308 26.39 36.126 41.489 30.308-26.39-36.126-41.489z"/><path fill="#FFB27D" d="M156.074 217.939s-11.102 1.301-11.069 3.937c.034 2.635 2.769 8.053 4.137 8.293 1.368.24 9.034-7.326 9.034-7.326l-2.102-4.904z"/><path fill="#E3E3E3" d="M159.784 145.294s14.825 1.041 20.51 14.852c5.684 13.817 16.466 37.009 16.466 40.912 0 3.904-6.024 15.933-38.37 22.845 0 0-3.343-3.516-3.143-6.305 0 0 20.19-17.347 20.136-19.368-.1-3.837-3.309-8.894-21.036-26.628-4.818-4.818 5.437-26.308 5.437-26.308z"/><path fill="#FFB1A5" d="M150.29 146.916c-1.248-3.49-2.829-12.63-2.809-19.089l-.941.187-15.773 3.122s.361 4.964.367 9.641v.121c.02 4.063-.013 7.325.407 8.433 1.508 3.896 19.783.48 18.749-2.415z"/><path fill="#E78778" d="M130.767 131.129s.361 4.964.367 9.641c8.827-.247 13.491-8.3 15.406-12.763l-15.773 3.122z"/><path fill="#FFB1A5" d="M127.818 135.56s20.884.347 20.897-12.664c.013-13.01 2.722-21.724-10.615-22.498-13.337-.767-15.933 4.191-16.994 8.534-1.054 4.343 1.281 26.208 6.712 26.628z"/><path fill="#222" d="M128.593 100.079s5.717 15.265 14.491 17.52c8.774 2.255 12.583-.093 12.583-.093s-6.732-5.351-8.126-14.685c0 0-14.632-10.002-18.948-2.742z"/><path fill="#222" d="M130.014 101.319s-4.243 1.588-5.985 4.678c-1.708 3.022-3.162 7.032-2.822 11.942 0 0-4.31-10.375.534-16.246 5.13-6.218 8.273-.374 8.273-.374z"/><path fill="#8E716C" d="m384.037 229.82-26.542-3.534.211 2.632-22.695 3.026s-14.631 36.7-1.738 117.409h18.463l6.647-81.843h2.356l6.435 81.843h18.463c12.893-80.709-1.6-119.533-1.6-119.533z"/><path stroke="#282828" stroke-linecap="round" stroke-linejoin="round" stroke-miterlimit="10" stroke-width="1.375" d="M349.94 267.517h19.263"/><path fill="#FFB1A5" d="M399.541 191.109c-2.269-3.622-15.024-3.498-15.7-3.578-3.447-.407 2.211 27.036 9.388 51.026 1.374 4.595 6.435 6.995 10.857 5.119.051-.022.094-.044.145-.058a8.072 8.072 0 0 0 4.785-8.923c-3.425-18.106-6.85-39.398-9.475-43.586z"/><path fill="#F3978E" d="m402.58 201.026-16.281 6.319-1.528-7.723 16.864-4.21.945 5.614zm3.076 15.46s-7.716 10.362-7.345 9.882c.371-.48 6.05-16.747 6.05-16.747l1.295 6.865z"/><path fill="#FFB1A5" d="m416.687 202.561-22.113 28.65c-2.902 3.76-1.978 9.199 2.007 11.788 3.977 2.581 9.315 1.221 11.576-2.945l18.405-33.959-9.875-3.534z"/><path fill="#FFB1A5" d="M422.41 209.921c-4.792-1.549-7.424-6.69-5.876-11.482 1.549-4.792 6.69-7.425 11.483-5.876 4.792 1.549 7.424 6.69 5.875 11.482-1.542 4.792-6.683 7.425-11.482 5.876z"/><path fill="#FFB1A5" d="M431.871 195.755s2.494-2.588-1.935-4.406c-4.428-1.818-9.904-1.404-13.401 7.09l15.336-2.684z"/><path fill="#372F5F" d="m436.459 177.649 9.257 4.014c.517.225.706.836.422 1.367l-12.18 22.753c-.284.531-.931.778-1.447.553l-9.257-4.014c-.516-.226-.706-.836-.422-1.367l12.18-22.754c.284-.53.931-.778 1.447-.552z"/><path fill="#261B43" d="m435.572 177.24 9.257 4.014c.516.226.705.837.422 1.368l-12.18 22.753c-.284.531-.931.778-1.447.552l-9.257-4.014c-.517-.225-.706-.836-.422-1.367l12.18-22.753c.284-.523.931-.771 1.447-.553z"/><path fill="#E6E6E6" d="m434.525 179.56 8.137 3.526-9.926 18.543-8.137-3.526 9.926-18.543z"/><path fill="#fff" d="m442.662 183.086-18.063 15.017 9.926-18.543 8.137 3.526z"/><path fill="#FFB1A5" d="M427.274 190.592s2.066.4 3.92 1.454a2.097 2.097 0 0 1 1.011 2.327 2.09 2.09 0 0 1-1.76 1.564l-4.814.603s-2.509 4.327-5.796 4.814l3.011-7.599 4.428-3.163z"/><path fill="#D884FF" d="M365.799 155.025c-.531 0 34.141 4.8 39.857 44.322l-17.991 2.756-3.628 29.843h-50.19l-9.962-55.134s11.118-15.933 31.763-21.787h10.151z"/><path stroke="#282828" stroke-linecap="round" stroke-linejoin="round" stroke-miterlimit="10" stroke-width="1.375" d="m387.666 202.103 1.563-17.256"/><path fill="#FFB1A5" d="M369.094 155.582v-13.729h-16.092v13.889c-.822.247-2.196.741-4.319 1.752l12.551 7.475 12.827-7.475c0 .007-2.036-1.178-4.967-1.912z"/><path fill="#E78778" d="M352.856 143.533s2.887 7.672 10.603 7.01c7.09-.611 5.962-11.242 5.962-11.242l-16.565 4.232z"/><path fill="#F3978E" d="M345.839 133.331c-2.523 2.29-8.158-6.392-5.722-8.828 2.436-2.436 4.297 1.389 4.297 1.389l1.091 2.589.822 3.505.196.916-.684.429z"/><path stroke="#282828" stroke-linecap="round" stroke-linejoin="round" stroke-miterlimit="10" stroke-width="1.107" d="M341.294 127.58s1.913-.858 3.607 1.905"/><path fill="#F3978E" d="M375.661 133.068c2.32 2.495 8.675-5.679 6.45-8.311-2.225-2.633-4.399 1.018-4.399 1.018l-1.302 2.487-1.113 3.425-.269.901.633.48z"/><path stroke="#282828" stroke-linecap="round" stroke-linejoin="round" stroke-miterlimit="10" stroke-width="1.107" d="M380.678 127.716s-1.832-1.018-3.752 1.6"/><path fill="#282828" d="M341.418 116.227c0 11.482 8.755 16.929 19.561 16.929s19.561-5.447 19.561-16.929-8.755-19.3-19.561-19.3-19.561 7.818-19.561 19.3z"/><path fill="#FFB1A5" d="M344.072 117.028c0 7.054.997 13.133 1.993 17.452.974 4.225 3.716 7.185 7.584 9.563l.706.436c4.094 2.516 9.387 2.574 13.547.153 4.196-2.444 7.133-5.672 8.035-10.21 1.644-8.253 1.825-17.387 1.825-17.387s1.564-17.8-16.601-17.452c-18.172.335-17.089 17.445-17.089 17.445z"/><path fill="#282828" d="m356.929 117.631-9.032 2.117s.408-2.298 4.102-3.135c3.694-.829 4.93 1.018 4.93 1.018zm8.013 0 8.719 2.117s-.392-2.298-3.963-3.135c-3.57-.829-4.756 1.018-4.756 1.018zm12.588 5.295s-7.264-9.817-5.592-19.772c0 0 5.388 2.713 6.799 9.715 1.404 7.01-1.207 10.057-1.207 10.057zm-33.465.669s8.436-11.155 6.763-21.103c0 0-5.854 3.382-7.257 10.384-1.404 7.003.494 10.719.494 10.719z"/><path fill="#282828" d="M376.919 107.08s-9.33 10.209-34.846 8.464c0 0 3.905-14.987 16.274-16.58 0-.007 14.282-1.708 18.572 8.116z"/><path fill="#282828" d="M388.307 97.09c1.073-6.645-3.444-12.902-10.089-13.975-6.645-1.073-12.901 3.444-13.974 10.089-1.073 6.645 3.444 12.901 10.089 13.974 6.644 1.073 12.901-3.444 13.974-10.089zM227.528 229.791l-22.696-3.025.211-2.632-26.542 3.534s-14.485 38.824-1.592 119.533h18.463l6.435-81.844h2.356l6.647 81.844h18.463c12.878-80.709-1.745-117.41-1.745-117.41zm-1.811-110.412c-3.069-3.614-5.534-7.832-7.621-13.744-2.247-6.348-9.591-3.766-9.591-3.766s-6.123-7.883-15.336-5.141c-9.214 2.741-12.413 9.3-12.602 17.095-.189 7.796-6.319 9.01-11.039 18.027-8.333 15.918 5.694 29.327 31.24 25.604l.036-.247c2.516.763 5.599 1.098 9.359.872 30.686-1.818 27.72-24.382 15.554-38.7z"/><path fill="#F3978E" d="M215.667 131.179c2.524 2.291 8.159-6.391 5.723-8.827-2.436-2.436-4.297 1.388-4.297 1.388l-1.091 2.589-.822 3.505-.196.916.683.429z"/><path stroke="#282828" stroke-linecap="round" stroke-linejoin="round" stroke-miterlimit="10" stroke-width="1.107" d="M220.219 125.428s-1.912-.858-3.607 1.905"/><path fill="#F3978E" d="M185.846 130.918c-2.32 2.494-8.675-5.679-6.45-8.312 2.225-2.632 4.399 1.018 4.399 1.018l1.302 2.487 1.112 3.425.27.902-.633.48z"/><path stroke="#282828" stroke-linecap="round" stroke-linejoin="round" stroke-miterlimit="10" stroke-width="1.107" d="M180.828 125.573s1.833-1.018 3.753 1.6"/><path fill="#282828" d="M220.096 114.078c0 11.483-8.755 16.929-19.561 16.929s-19.561-5.446-19.561-16.929c0-11.482 8.755-19.299 19.561-19.299s19.561 7.817 19.561 19.299z"/><path fill="#FFB1A5" d="M208.505 139.71h-16.093v20.834h16.093V139.71z"/><path fill="#E78778" d="M190.064 138.409s4.479 8.937 9.991 10.333c1.469.371 3.047.248 4.465-.254 2.072-.735 4.705-3.825 5.148-7.25l.211-1.956s-9.809 5.337-19.815-.873z"/><path fill="#FFB1A5" d="M217.434 114.877c0 7.053-.996 13.132-1.992 17.452-.974 4.225-3.716 7.184-7.584 9.562l-.706.437c-4.094 2.516-9.388 2.574-13.547.152-4.196-2.443-7.134-5.672-8.035-10.209-1.644-8.254-1.826-17.387-1.826-17.387s-1.563-17.801 16.602-17.452c18.172.334 17.088 17.445 17.088 17.445z"/><path fill="#282828" d="m203.109 116.353 9.664 2.29s-.436-2.486-4.392-3.388c-3.956-.909-5.272 1.098-5.272 1.098zm-5.076 0-9.787 2.29s.443-2.486 4.45-3.388c3.999-.909 5.337 1.098 5.337 1.098zm-14.056 4.429s7.265-9.817 5.592-19.772c0 0-5.388 2.712-6.799 9.715-1.403 7.002 1.207 10.057 1.207 10.057zm33.472-.326s-8.435-10.159-6.763-20.106c0 0 5.854 3.381 7.257 10.384 1.404 7.002-.494 9.722-.494 9.722z"/><path fill="#282828" d="M184.588 104.929s8.334 11.206 33.857 9.454c0 0-2.916-15.977-15.285-17.569 0 0-14.282-1.709-18.572 8.115z"/><path fill="#FFB1A5" d="M161.325 279.073c-.37.582 21.241-94.023 14.827-92.598-.589.131-11.823 1.171-13.489 4.567-4.843 9.846-8.311 87.311-8.311 87.311l6.973.72z"/><path fill="#FFB1A5" d="M154.345 278.354s-3.484 16.158 9.686 17.925a1.85 1.85 0 0 0 1.992-1.222l.036-.109c.313-.916-.145-1.891-1.025-2.283-2.145-.96-5.476-3.389-3.825-8.894 0 0 1.905-.232 2.953 3.316.269.917 1.294 1.375 2.145.946.581-.291.909-.917.829-1.564-.313-2.487-1.564-8.471-6.363-10.078l-6.428 1.963z"/><path fill="#F3978E" d="M158.773 213.781s12.449 17.532 12.515 17.197c.065-.342 4.356-24.622 4.356-24.622l-15.111-6.544-1.76 13.969z"/><path fill="#E64C4C" d="M193.373 157.112c.53 0-30.774.56-36.497 40.082l17.99 2.756 3.629 29.844h50.189l9.962-55.135s-7.082-11.947-27.727-17.794l-17.546.247z"/><path fill="#FFB1A5" d="M178.073 161.889s4.421 5.876 22.549 5.876c17.961 0 22.55-6.181 22.55-6.181s-10.588-5.912-22.87-7.832c0 0-10.973 1.956-22.229 8.137zm170.9 56.426c2.421 26.71-.131 46.176.574 95.326l-23.276.974-3.469-92.002 26.171-4.298z"/><path fill="#F3978E" d="M325.674 239.156s14.413-1.316 24.266-7.817l-.262-5.723-24.018 3.272.014 10.268z"/><path fill="#6637ED" d="M302.55 156.811s45.783 11.511 54.08 69.626c0 0-22.404 9.716-44.859 5.534l5.054-19.437-14.275-55.723z"/><path fill="#FFB1A5" d="m165.798 180.974 34.09 40.256-10.435 29.378s-25.91-36.024-37.552-63.868l13.897-5.766z"/><path fill="#FFB1A5" d="M166.917 182.428s-11.969 6.762-15.016 4.319c-5.323-4.276-9.715-19.925-9.715-19.925s22.382-8.435 22.172-8.108c-.211.328 2.559 23.714 2.559 23.714z"/><path fill="#FFB1A5" d="M166.917 182.427c-.211-1.207 4.436-14.201 6.036-19.081.385-1.178-.429-2.465-1.702-2.712-.829-.16-2.145-.058-2.771 1.134l-5.613 9.599 4.05 11.06z"/><path fill="#FFB1A5" d="m166.503 168.378-3.854-19.176c-.226-1.273-1.513-2.152-2.793-1.912-1.105.21-1.839 1.192-1.709 2.305l1.68 14.281 6.676 4.502zm-7.665-7.076-5.235-13.692c-.437-1.2-1.782-1.862-2.974-1.462a2.071 2.071 0 0 0-1.368 2.458l3.884 15.823 5.693-3.127zm-5.628 4.036-6.625-13.453c-.611-1.25-2.123-1.825-3.359-1.287-1.164.509-1.68 1.826-1.186 3.033l5.28 12.703 5.89-.996z"/><path fill="#FFB1A5" d="m142.186 166.821-5.199-8.246c-.429-.967-.037-2.058.909-2.487.901-.414 2.014-.087 2.596.756l6.835 9.483-5.141.494z"/><path stroke="#282828" stroke-linecap="round" stroke-linejoin="round" stroke-miterlimit="10" stroke-width="1.708" d="M165.456 166.931s-7.803-.821-8.61 9.584"/><path fill="#FFB1A5" d="M182.537 236.871s6.414 22.186 19.19 19.241c12.777-2.945 32.687-30.236 32.687-30.236l-4.458-46.59-35.857 44.132-11.562 13.453z"/><path fill="#F3978E" d="M205.218 209.705s12.107 18.259 22.433 24.702l6.763-8.53-26.077-20.172-3.119 4z"/><path fill="#6637ED" d="M258.192 155.806s-35.544 8.013-54.487 49.324c0 0 11.446 17.241 29.793 24.906l12.282-15.046 12.412-59.184z"/><path fill="#6637ED" d="M258.193 155.676c-13.882 7.119-22.615 16.565-22.615 16.565l2.741 120.755h87.501l-.284-120.13s-11.031-10.791-22.986-16.056c-10.158-4.464-34.489-6.195-44.357-1.134z"/><path stroke="#282828" stroke-linecap="round" stroke-linejoin="round" stroke-miterlimit="10" stroke-width="1.557" d="M299.591 214.52c-6.719 0-12.173-5.447-12.173-12.173v-12.173h24.338v12.173c.008 6.726-5.439 12.173-12.165 12.173zm26.084 17.902 1.134-39.5m-89.886 32.919-1.891-34.242"/><path fill="#282828" d="m259.218 111.573-3.651-18.042c-.203-1.469-.778-3.737-.08-5.868 1.157-3.527 5.403-10.297 12.661-7.199l1.57 7.14s-7.533 1.52-10.558 11.381l.058 12.588z"/><path fill="#282828" d="M267.617 84.188c-.131 2.37-2.225 12.747-9.584 16.521 0 0-6.443-13.816 9.584-16.522z"/><path fill="#FFB1A5" d="M293.424 152.353v-30.636h-28.243v30.643l-8.406 3.832s1.971 12.697 22.826 12.98c20.855.284 22.95-12.355 22.95-12.355l-9.127-4.464z"/><path fill="#282828" d="M268.148 80.464s5.185-13.678 21.168-6.406c9.679 4.4 12.384 10.297 13.54 14.478.385 1.389.538 3.578.429 4.88l-3.869 18.157-15.096-25.124-14.609 1.156-1.563-7.14z"/><path fill="#F3978E" d="M299.423 111.572s1.906-3.032 5.832-1.542c3.927 1.491 2.153 11.032-3.737 12.246 0 0-2.109.458-3.767-.989-.007.007 1.44-7.039 1.672-9.715z"/><path stroke="#282828" stroke-linecap="round" stroke-linejoin="round" stroke-miterlimit="10" stroke-width="1.557" d="M304.477 113.397s-3.287-1.098-5.628 3.745"/><path fill="#F3978E" d="M259.218 111.572s-1.905-3.032-5.832-1.542c-3.927 1.491-2.152 11.032 3.738 12.246 0 0 2.109.458 3.767-.989 0 .007-1.447-7.039-1.673-9.715z"/><path stroke="#282828" stroke-linecap="round" stroke-linejoin="round" stroke-miterlimit="10" stroke-width="1.557" d="M254.164 113.397s3.287-1.098 5.629 3.745"/><path fill="#FFB1A5" d="M299.816 102.519c0 5.752-.56 17.779-4.101 24.92-3.316 6.705-8.806 10.312-16.005 10.53-7.199.218-12.559-2.56-16.856-11.264-4.298-8.704-4.094-24.084-4.094-24.084s0-20.543 20.303-20.543c21.386.007 20.753 20.441 20.753 20.441z"/><path fill="#E78778" d="M265.392 130.996s2.363 12.006 12.813 13.38c12.02 1.585 15.219-13.074 15.219-13.074s-5.315 6.653-13.714 6.668c-9.366.014-14.318-6.974-14.318-6.974z"/><path fill="#282828" d="m282.597 99.581 12.427 3.207s-.567-3.483-5.65-4.756c-5.083-1.258-6.777 1.55-6.777 1.55zm-7.723 0-12.427 3.207s.567-3.483 5.65-4.756c5.083-1.258 6.777 1.55 6.777 1.55z"/><path fill="#282828" d="M265.392 84.653s3.774 10.718 20.79 10.384c11.562-.226 14.325 8.144 14.325 8.144s-2.014-18.71-2.545-18.528c-.531.174-17.598-4.552-17.598-4.552l-14.972 4.552z"/></g><path stroke="#fff" stroke-width="1.672" d="M5.728 55.86H494.49"/><circle cx="34.859" cy="30.998" r="8.546" fill="#6637ED"/><circle cx="56.838" cy="30.998" r="8.546" fill="#FCC55A"/><circle cx="78.817" cy="31.327" r="8.546" fill="#D884FF"/><rect width="170.298" height="19.971" x="290.68" y="20.088" stroke="#fff" stroke-width="2.23" rx="9.985"/><defs><filter id="a" width="499.46" height="296.376" x=".711" y=".709" color-interpolation-filters="sRGB" filterUnits="userSpaceOnUse"><feFlood flood-opacity="0" result="BackgroundImageFix"/><feColorMatrix in="SourceAlpha" result="hardAlpha" values="0 0 0 0 0 0 0 0 0 0 0 0 0 0 0 0 0 0 127 0"/><feOffset dy="4.46"/><feGaussianBlur stdDeviation="2.23"/><feComposite in2="hardAlpha" operator="out"/><feColorMatrix values="0 0 0 0 0 0 0 0 0 0 0 0 0 0 0 0 0 0 0.25 0"/><feBlend in2="BackgroundImageFix" result="effect1_dropShadow_26_2"/><feBlend in="SourceGraphic" in2="effect1_dropShadow_26_2" result="shape"/></filter></defs></svg>